<svg version="1.1" id="Layer_1" xmlns="http://www.w3.org/2000/svg" xmlns:xlink="http://www.w3.org/1999/xlink" x="0px" y="0px"
	 width="100%" viewBox="0 0 352 288" enable-background="new 0 0 352 288" xml:space="preserve">
<path fill="#000000" opacity="1.000000" stroke="none" 
	d="
M353.000000,102.531342 
	C346.649658,104.984131 343.175934,102.909317 340.185455,96.581703 
	C332.740265,80.828354 322.153076,67.020706 309.780792,54.817837 
	C295.383820,40.618027 279.231476,28.924389 260.552582,20.504244 
	C244.456268,13.248271 227.864792,8.918751 210.600357,5.612126 
	C196.435684,2.899190 182.045029,2.565612 168.464600,4.226969 
	C143.269348,7.309219 118.890587,14.836803 96.782547,28.460777 
	C76.351120,41.051540 59.076073,56.915684 44.952911,76.155220 
	C35.666897,88.805267 28.732010,102.858902 23.261616,117.559502 
	C22.001518,120.945778 20.358763,122.429764 16.773542,122.205322 
	C13.287945,121.987114 9.776877,122.204117 6.277688,122.166100 
	C3.220420,122.132889 2.030306,123.752785 2.354647,126.591316 
	C4.121357,142.053024 2.685730,157.558578 3.034781,173.038879 
	C3.121733,176.895203 2.733757,180.690460 1.208670,184.674728 
	C1.000000,151.645767 1.000000,118.291542 1.191951,84.762772 
	C2.369026,86.075554 1.355143,88.224350 3.039330,89.683350 
	C5.988385,85.348526 6.301571,80.231613 8.056807,75.639580 
	C17.844221,50.033787 32.032688,27.202591 51.062527,7.434483 
	C52.880203,5.546288 54.652885,3.842225 53.000000,1.000000 
	C69.687561,1.000000 86.375122,1.000000 103.247223,1.230352 
	C96.256256,5.524380 88.427902,3.565791 80.864014,3.756865 
	C78.190872,3.824392 76.183029,4.425501 74.116066,6.125494 
	C54.778675,22.029696 39.805706,41.383759 28.843559,63.794933 
	C25.028517,71.594467 21.509628,79.618065 19.781277,88.396370 
	C41.344898,50.038460 72.033432,21.797337 112.618164,4.240503 
	C111.448738,2.793107 110.724365,1.896554 110.000000,1.000000 
	C189.500000,1.000000 269.000000,0.991991 348.499939,1.062296 
	C349.963684,1.063590 351.890686,-0.091487 352.617615,2.514091 
	C340.523193,4.665805 328.702850,3.542221 315.821655,3.356774 
	C317.280975,5.190289 317.754272,5.849790 318.292358,6.451358 
	C328.154724,17.477587 338.017487,28.462996 345.629547,41.305389 
	C347.963043,45.242264 348.974243,50.112003 353.000000,53.000000 
	C353.000000,69.354225 353.000000,85.708458 353.000000,102.531342 
M329.374115,55.156197 
	C336.528198,62.894672 342.351105,71.639107 348.296326,80.345894 
	C348.352325,79.422592 348.117706,78.672203 347.829468,77.942993 
	C336.812073,50.072094 320.161682,26.239012 297.181030,6.866693 
	C294.330475,4.463725 291.716156,3.392157 287.847107,3.714629 
	C281.912720,4.209236 275.893280,3.711872 269.910919,3.588501 
	C267.350037,3.535689 264.839508,3.619606 261.622040,4.743025 
	C270.171844,8.640088 277.722412,12.442759 284.873810,16.934235 
	C301.400452,27.313847 316.512115,39.388393 329.374115,55.156197 
z"/>
<path fill="#000000" opacity="1.000000" stroke="none" 
	d="
M1.000000,189.468277 
	C1.607146,195.428253 5.745514,195.909058 11.133626,195.806992 
	C20.112436,195.636963 19.405199,193.763809 23.679523,204.558731 
	C31.252636,223.684860 41.956196,240.990570 55.835777,256.352325 
	C67.055313,268.769989 79.864975,279.160553 93.869766,288.680511 
	C85.979103,289.000000 77.958199,289.000000 69.310287,288.704376 
	C51.073658,273.916748 35.980247,257.162811 23.666370,237.901016 
	C30.740086,256.554047 39.657036,274.061432 53.000000,289.000000 
	C46.978848,289.000000 40.957695,289.000000 34.363850,288.672546 
	C30.955402,283.857605 27.924280,279.480225 25.320904,274.861725 
	C17.814789,261.545746 10.963087,247.959793 6.627586,233.164932 
	C4.195983,224.867096 2.373109,216.500702 1.000000,208.000000 
	C1.000000,201.978851 1.000000,195.957703 1.000000,189.468277 
z"/>
<path fill="#000000" opacity="1.000000" stroke="none" 
	d="
M276.468628,289.000000 
	C283.592651,283.124817 291.639191,277.873077 298.906891,271.536926 
	C317.852325,255.019836 333.020447,235.764069 342.775787,212.460312 
	C344.605225,208.090134 348.276276,205.960968 352.688232,204.150345 
	C353.000000,211.354248 353.000000,218.708496 352.744537,226.749084 
	C351.671204,228.683121 350.747894,229.874832 350.051544,231.187027 
	C341.631470,247.054443 330.420532,260.852539 318.029297,273.689514 
	C312.741180,279.167847 306.699341,283.918610 301.000000,289.000000 
	C292.979095,289.000000 284.958191,289.000000 276.468628,289.000000 
z"/>
<path fill="#000000" opacity="1.000000" stroke="none" 
	d="
M339.000000,289.000000 
	C332.978851,289.000000 326.957703,289.000000 320.612305,288.698547 
	C332.878296,273.878693 342.032440,257.357849 348.812531,239.453293 
	C349.741638,236.999741 350.453369,234.404327 353.000000,233.000000 
	C353.000000,244.020889 353.000000,255.041794 352.727997,266.726593 
	C347.970673,274.593658 343.485321,281.796844 339.000000,289.000000 
z"/>
<path fill="#000000" opacity="1.000000" stroke="none" 
	d="
M1.000000,232.468658 
	C2.275182,233.917053 2.169110,236.108307 2.152350,238.247375 
	C2.026742,254.278488 4.049878,270.298798 2.406346,286.339722 
	C2.342176,286.966064 2.638846,287.629333 2.883690,288.637695 
	C-0.033157,289.610016 1.035585,287.307404 1.032177,286.037292 
	C0.984680,268.337402 1.000000,250.637344 1.000000,232.468658 
z"/>
<path fill="#000000" opacity="1.000000" stroke="none" 
	d="
M1.000000,25.468658 
	C2.852834,29.365429 2.673454,34.104950 2.739040,38.609890 
	C2.844053,45.822948 1.888938,53.051437 1.190965,60.636703 
	C1.000000,49.312439 1.000000,37.624878 1.000000,25.468658 
z"/>
<path fill="#000000" opacity="1.000000" stroke="none" 
	d="
M48.531349,1.000000 
	C40.949856,4.755676 32.817890,3.157393 24.341530,1.185802 
	C32.020901,1.000000 40.041798,1.000000 48.531349,1.000000 
z"/>
<path fill="#000000" opacity="1.000000" stroke="none" 
	d="
M115.698624,161.036469 
	C116.156456,153.987366 114.505280,148.247131 109.930954,143.207794 
	C107.754219,140.809784 106.598351,137.499756 104.894508,134.654083 
	C102.804596,131.163589 100.533257,130.295837 97.733376,134.102097 
	C95.476585,137.170059 92.772720,139.916855 90.602142,143.039017 
	C84.820381,151.355499 76.805840,157.247635 69.180771,163.641525 
	C63.874107,168.091339 61.101624,174.357651 59.607529,181.087082 
	C59.180748,183.009293 52.826603,190.270676 51.036942,190.468567 
	C49.926556,190.591354 49.052841,190.184067 48.705948,189.066513 
	C47.851185,186.312820 47.214149,183.340515 48.549118,180.760132 
	C52.320343,173.470673 55.098972,165.354446 61.779800,160.099121 
	C67.211647,155.826279 71.746117,150.629379 77.159325,146.378098 
	C81.559196,142.922623 87.105820,140.173172 85.870758,132.953812 
	C85.735359,132.162354 86.454559,131.014343 87.097122,130.333450 
	C92.201500,124.924644 97.234619,119.459976 101.222290,113.314651 
	C107.902054,114.851234 109.001373,120.704071 110.911629,125.204292 
	C113.858009,132.145447 118.505341,138.528152 118.585686,146.626770 
	C118.615547,149.637177 121.947380,150.369675 125.072960,151.714020 
	C122.208641,156.172791 123.493729,159.743439 127.369751,162.802658 
	C128.750702,163.892593 128.787048,166.134842 128.153305,167.512222 
	C126.345963,171.440308 128.976517,175.367386 127.722122,179.289352 
	C127.211517,180.885773 128.858368,181.951813 130.341110,182.448853 
	C132.042435,183.019180 133.748245,182.841522 134.802277,181.231842 
	C135.516678,180.140839 136.270767,178.820358 136.305954,177.582611 
	C136.496796,170.866013 139.518723,164.677490 140.237411,158.273590 
	C140.952148,151.904709 142.501160,146.228424 145.888947,141.106384 
	C150.421082,134.254181 152.921371,126.193123 159.188705,120.335579 
	C165.942444,114.023468 172.823212,107.818016 178.418335,100.296814 
	C182.062759,95.397842 190.294388,95.567970 194.647766,100.005280 
	C195.628632,101.005043 196.717285,101.681488 197.981430,102.091324 
	C203.561478,103.900383 205.382507,108.536606 207.702560,113.407257 
	C211.299255,120.958061 211.051743,129.982544 216.913483,136.585037 
	C218.154266,137.982620 218.653015,139.846161 216.374985,140.586227 
	C213.629242,141.478210 210.655853,141.768784 208.991623,138.504578 
	C206.658020,133.927460 204.219086,129.384415 202.228851,124.656868 
	C199.787949,118.858772 195.898819,114.196678 191.756271,109.624832 
	C189.749481,107.410072 188.058182,107.746445 185.715607,109.157654 
	C180.904144,112.056122 177.435684,116.320656 173.599121,120.227554 
	C171.347717,122.520233 169.183578,124.220398 165.372437,123.581329 
	C161.141541,122.871895 159.184265,126.005867 160.742615,130.224808 
	C162.007706,133.649796 161.620895,136.778351 159.602951,139.712540 
	C155.043121,146.342743 152.643890,153.973648 149.267014,161.128571 
	C144.737228,170.726242 142.721512,181.276291 137.188278,190.424637 
	C135.373917,193.424423 133.761658,195.967789 129.927429,194.604324 
	C126.049522,193.225311 126.725624,190.116730 127.727112,187.123611 
	C121.168381,184.400696 115.701096,172.705231 115.698624,161.036469 
z"/>
<path fill="#000000" opacity="1.000000" stroke="none" 
	d="
M281.218933,106.636749 
	C283.773682,111.021812 286.387726,115.249245 289.121216,118.769638 
	C292.781616,123.483810 294.877411,128.530701 297.112732,133.742615 
	C297.363312,134.326920 297.812561,135.226044 298.245392,135.272430 
	C305.149841,136.012421 305.946228,142.431229 308.647064,146.805023 
	C311.227325,150.983551 316.084442,154.047546 315.347961,160.141296 
	C315.048035,162.622940 314.915070,165.099686 312.607513,166.018433 
	C310.184845,166.983017 310.172729,163.965439 308.976166,162.817673 
	C306.826965,160.756134 304.635468,158.639175 302.134155,157.066040 
	C297.602753,154.216156 294.659607,150.187408 293.767792,145.146072 
	C291.722992,133.586472 282.254028,126.877678 276.436157,117.809158 
	C274.869568,115.367279 271.816925,115.508423 269.342255,117.564178 
	C263.092987,122.755524 257.422729,128.274902 252.567459,135.033096 
	C247.116669,142.620193 239.771042,148.865601 233.103104,155.548370 
	C230.664078,157.992813 227.194702,158.063904 224.906937,155.934235 
	C222.611603,153.797516 224.830536,151.378403 226.458282,149.469833 
	C239.132782,134.608643 251.814743,119.753799 264.514862,104.914490 
	C265.922455,103.269775 267.382385,101.724350 268.139771,99.599236 
	C268.744171,97.903358 269.462372,95.977409 271.738251,95.960182 
	C274.133179,95.942047 274.517059,98.032639 275.123352,99.710411 
	C276.205353,102.704552 277.133209,105.773514 281.218933,106.636749 
z"/>
<path fill="#000000" opacity="1.000000" stroke="none" 
	d="
M54.928413,191.722015 
	C56.549179,191.733643 57.726200,191.626297 58.869411,191.776413 
	C65.089912,192.593323 66.482353,196.286346 63.017704,203.263214 
	C65.925415,205.370041 67.393982,208.455582 65.873291,211.814255 
	C64.336411,215.208664 60.805302,216.353073 57.300617,217.004837 
	C56.334217,217.184555 55.314705,217.092087 54.319359,217.100647 
	C47.302704,217.160965 47.033249,216.886261 47.002895,209.919968 
	C46.984840,205.776016 47.578396,201.654083 47.724751,197.553940 
	C47.903191,192.554688 49.979782,191.080414 54.928413,191.722015 
M52.438278,208.696609 
	C51.893536,212.715927 54.431339,212.971130 57.334812,212.622253 
	C59.364929,212.378296 61.674149,211.740860 61.385910,209.284454 
	C61.011124,206.090469 58.197166,206.031403 55.649311,206.103958 
	C54.296513,206.142471 52.994213,206.339767 52.438278,208.696609 
M52.396378,197.706009 
	C52.422783,199.485489 52.079865,201.503952 54.797615,201.615814 
	C56.708794,201.694489 58.404083,201.159073 59.352036,199.388199 
	C60.074497,198.038559 59.644318,196.749924 58.288662,196.082840 
	C56.217426,195.063660 54.018925,194.022263 52.396378,197.706009 
z"/>
<path fill="#000000" opacity="1.000000" stroke="none" 
	d="
M256.184631,215.456207 
	C256.061188,209.187363 256.115051,203.364655 255.923203,197.550079 
	C255.801605,193.864868 257.328217,192.376663 260.972107,192.711166 
	C264.266907,193.013596 267.607666,192.278336 270.893524,193.180298 
	C277.152710,194.898422 279.944427,198.030640 280.277374,203.833511 
	C280.645691,210.252625 278.501862,213.942581 272.462250,216.215302 
	C268.590698,217.672195 264.501160,218.520081 260.271057,218.118195 
	C258.591370,217.958618 256.876862,217.950455 256.184631,215.456207 
M272.137146,198.254501 
	C261.921997,194.472336 261.283966,194.896194 261.267059,205.531631 
	C261.264160,207.353851 261.302307,209.176682 261.354492,210.998276 
	C261.398407,212.531204 262.127014,213.554031 263.731628,213.619171 
	C267.852936,213.786484 271.815063,213.215607 274.207703,209.380325 
	C276.598114,205.548538 275.970428,201.875320 272.137146,198.254501 
z"/>
<path fill="#000000" opacity="1.000000" stroke="none" 
	d="
M239.502106,212.605820 
	C240.458450,214.158554 241.187820,215.431458 242.119385,217.057220 
	C238.863297,218.932983 236.981888,217.330215 235.413986,215.050385 
	C233.720551,212.588013 232.279327,209.930710 229.613144,208.320511 
	C227.178406,206.850052 225.474854,206.969193 225.352905,210.351395 
	C225.305023,211.679260 225.316391,213.009308 225.267212,214.337112 
	C225.208191,215.930191 224.354141,216.806564 222.763351,216.799088 
	C221.449768,216.792892 220.379364,216.101944 220.344955,214.770630 
	C220.169205,207.970856 220.084274,201.168198 220.038239,194.366089 
	C220.029663,193.101562 220.762390,192.061218 222.091553,191.920578 
	C227.100006,191.390671 232.178757,191.256119 236.543106,194.155502 
	C239.314728,195.996780 240.625153,199.347549 238.091919,201.886505 
	C233.731964,206.256302 236.650452,209.118195 239.502106,212.605820 
M230.447876,203.081345 
	C232.516205,201.888672 234.744781,200.569626 233.162827,197.760452 
	C231.903839,195.524780 229.424240,195.896317 227.364334,196.314407 
	C224.567703,196.882019 225.299728,199.319183 225.402298,201.156189 
	C225.570663,204.170822 227.749878,203.723160 230.447876,203.081345 
z"/>
<path fill="#000000" opacity="1.000000" stroke="none" 
	d="
M196.325317,211.231812 
	C191.433487,211.260803 186.451721,209.695404 184.075882,215.725525 
	C183.401550,217.437134 181.415344,217.442093 179.568207,215.851822 
	C181.872238,207.939209 186.089691,200.757767 189.768021,193.393066 
	C191.056747,190.812790 194.148636,190.640106 195.656418,193.770905 
	C198.823990,200.348114 201.678360,207.076126 204.664810,213.740646 
	C205.196426,214.927002 205.334473,216.048096 203.889282,216.643112 
	C202.500610,217.214844 201.194000,216.935562 200.409180,215.606537 
	C199.425064,213.939957 199.188370,211.687881 196.325317,211.231812 
M194.865479,203.419266 
	C194.144440,201.972046 193.782944,200.294968 191.947174,199.074860 
	C191.207687,201.459839 189.362885,203.271500 189.672913,206.336243 
	C191.808395,205.954163 194.818237,208.796387 194.865479,203.419266 
z"/>
<path fill="#000000" opacity="1.000000" stroke="none" 
	d="
M315.129883,216.885559 
	C313.397003,212.214127 310.443024,210.679062 305.777679,210.995605 
	C302.363068,211.227264 300.094666,212.132828 298.905151,215.454178 
	C298.227325,217.346817 296.760284,218.756592 294.675537,217.662292 
	C292.567200,216.555603 293.864594,214.704803 294.503845,213.300354 
	C297.120361,207.552017 299.880951,201.869415 302.530792,196.135971 
	C303.427490,194.195847 304.515961,192.688080 306.940399,192.789703 
	C309.197083,192.884293 309.819611,194.442200 310.602448,196.233047 
	C313.633636,203.167389 316.856628,210.017868 319.918610,216.704010 
	C318.087097,218.484665 316.744629,218.023239 315.129883,216.885559 
M304.102448,204.478104 
	C303.150146,210.591370 307.182770,206.746628 309.422760,207.621933 
	C309.230408,204.357666 308.882843,201.866562 306.647827,200.029968 
	C304.994720,200.903992 305.243866,202.701813 304.102448,204.478104 
z"/>
<path fill="#000000" opacity="1.000000" stroke="none" 
	d="
M94.722275,201.806549 
	C96.506622,202.139481 97.245857,202.973755 96.923378,204.335129 
	C96.601364,205.694519 95.340416,205.803192 94.177940,206.055634 
	C91.522415,206.632263 86.901909,204.370224 87.443573,209.892822 
	C87.921844,214.769150 92.126724,211.984329 94.627487,212.683533 
	C96.238480,213.133957 98.851288,212.123398 98.875412,214.821014 
	C98.898750,217.430740 96.370201,217.054932 94.666748,217.063828 
	C79.540421,217.142990 82.230003,218.014587 81.903809,205.323868 
	C81.878189,204.327316 81.826431,203.318863 81.940010,202.333603 
	C82.328644,198.962524 80.188881,194.086578 83.362495,192.541809 
	C87.617722,190.470627 92.901443,191.431442 98.282959,192.373932 
	C96.875771,195.638855 94.508522,194.934570 92.580513,195.125748 
	C90.203079,195.361481 87.246117,194.589111 87.330109,198.586472 
	C87.416908,202.717911 90.545410,201.430069 92.795578,201.708328 
	C93.288322,201.769257 93.791695,201.744263 94.722275,201.806549 
z"/>
<path fill="#000000" opacity="1.000000" stroke="none" 
	d="
M156.401855,216.535172 
	C154.453171,217.187302 152.929291,216.910492 152.154694,215.404114 
	C148.382751,208.068817 145.097107,200.521866 142.291534,192.715134 
	C146.084290,190.531937 147.338791,192.769592 148.578461,195.338654 
	C150.770462,199.881378 151.961182,204.914246 155.022354,209.280151 
	C159.970795,203.919144 159.090988,194.762024 167.037369,191.973221 
	C164.469223,200.619415 162.120178,209.168213 156.401855,216.535172 
z"/>
<path fill="#000000" opacity="1.000000" stroke="none" 
	d="
M119.297539,207.687851 
	C118.734779,212.675354 121.640297,212.725327 124.925156,212.787674 
	C127.023628,212.827499 130.681656,211.708023 130.716293,214.740585 
	C130.756668,218.273178 126.944176,216.692902 124.739464,217.096069 
	C123.774101,217.272598 122.749626,217.134186 121.752113,217.125183 
	C115.290207,217.066895 114.998825,216.784531 114.965164,210.369629 
	C114.938995,205.381866 114.909218,200.393768 114.943977,195.406250 
	C114.954506,193.897339 115.079407,192.179230 117.096375,192.077805 
	C119.298759,191.967072 119.218788,193.802109 119.244850,195.259583 
	C119.316200,199.248749 119.284706,203.239761 119.297539,207.687851 
z"/>
<path fill="#000000" opacity="1.000000" stroke="none" 
	d="
M260.860992,144.214752 
	C263.792908,145.906906 265.105316,148.123917 263.980133,151.007751 
	C262.910431,153.749329 260.038239,153.650436 257.998840,153.056747 
	C253.023163,151.608261 256.336700,147.954117 256.502960,145.258850 
	C256.715027,141.821198 258.675140,142.759476 260.860992,144.214752 
z"/>
<path fill="#000000" opacity="1.000000" stroke="none" 
	d="
M39.078232,188.446442 
	C36.307358,190.108810 35.018051,188.447617 34.506985,186.442978 
	C33.722607,183.366287 35.793125,182.008835 38.577457,181.148987 
	C40.296623,183.389130 39.996071,185.747177 39.078232,188.446442 
z"/>
</svg>