<svg version="1.1" id="Layer_1" xmlns="http://www.w3.org/2000/svg" xmlns:xlink="http://www.w3.org/1999/xlink" x="0px" y="0px"
	 width="100%" viewBox="0 0 733 508" enable-background="new 0 0 733 508" xml:space="preserve">
<path fill="#B6B9B7" opacity="1.000000" stroke="none" 
	d="
M1.000000,473.000000 
	C1.000000,315.706329 1.000000,158.412643 1.000000,1.059488 
	C245.232056,1.059488 489.464142,1.059488 734.000000,1.059488 
	C734.000000,158.025696 734.000000,315.051605 733.531372,472.538757 
	C696.090149,472.994720 659.117554,472.989441 622.097900,472.518738 
	C622.037720,459.467377 622.086670,446.880676 621.925842,434.296661 
	C621.907593,432.865631 620.711060,431.449707 620.046875,429.624146 
	C620.693054,427.307861 621.902344,425.400726 621.925415,423.479340 
	C622.090393,409.756195 622.064026,396.029633 621.934509,382.305725 
	C621.921692,380.951752 620.806152,379.608154 620.151855,377.857605 
	C622.851013,373.363281 622.825684,368.467102 620.027832,365.619354 
	C620.675659,362.617096 621.912048,360.018341 621.916138,357.417603 
	C622.022644,289.933472 622.003540,222.449173 621.987061,154.964890 
	C621.986694,153.315704 621.769897,151.666595 621.624268,149.706161 
	C620.930969,148.681076 620.267334,147.967285 619.714478,147.023575 
	C619.793762,146.459274 619.762329,146.124878 619.880127,145.503479 
	C620.692261,143.119370 621.910217,141.027390 621.929688,138.924332 
	C622.073303,123.377472 621.978210,107.828407 621.933960,91.793304 
	C621.909851,64.311592 621.909851,37.316601 621.909851,10.042180 
	C601.234680,10.042180 581.314209,10.042180 560.997742,10.244217 
	C550.496765,10.319352 540.391846,10.192451 529.800354,10.050035 
	C511.503113,10.014951 493.692169,9.956748 475.882111,10.056829 
	C474.602203,10.064022 473.328796,11.227371 471.653015,11.905436 
	C468.468597,11.304517 465.684418,10.085011 462.898438,10.080888 
	C391.947418,9.975886 320.996155,9.972818 250.045135,10.076650 
	C246.677597,10.081579 243.311737,11.231298 239.865631,11.451995 
	C239.108566,10.700734 238.431046,10.035283 237.753342,10.035069 
	C217.582962,10.028709 197.412567,10.088256 176.695114,10.158627 
	C168.329788,10.119287 160.508743,9.923285 152.694962,10.082778 
	C150.426773,10.129076 148.179367,11.193069 145.797028,11.416117 
	C144.321945,10.691751 142.972992,10.039865 141.622482,10.036608 
	C116.459030,9.975920 91.295395,9.986068 66.131821,10.011181 
	C64.865944,10.012444 63.600327,10.283304 62.312149,10.431212 
	C62.177948,11.428332 62.014797,12.075538 62.014580,12.722798 
	C61.999214,58.383865 61.981602,104.044968 62.063820,149.705887 
	C62.066402,151.139832 63.110325,152.571915 63.764740,154.336487 
	C63.240002,157.295792 62.040726,159.932892 62.083309,162.549789 
	C63.122097,226.387009 59.673672,290.265381 63.398952,354.144989 
	C62.665833,356.065613 62.037743,357.913391 62.032745,359.762909 
	C61.930748,397.503204 61.899990,435.243713 61.395470,472.989319 
	C40.957287,472.996307 20.978643,472.998169 1.000000,473.000000 
M671.389099,266.019409 
	C671.263977,266.663971 671.138794,267.308533 671.037842,268.648773 
	C671.063843,269.112030 671.089844,269.575317 670.921265,270.754242 
	C669.346069,271.695374 667.200867,272.269073 666.310059,273.651276 
	C664.219177,276.895447 662.728516,280.526428 660.456482,284.442108 
	C659.505493,286.429901 658.554504,288.417694 657.703552,290.196320 
	C660.374939,290.977173 662.900940,291.859161 665.497559,292.406250 
	C666.588135,292.636047 667.828003,292.157318 669.844543,292.029755 
	C675.564697,291.980927 681.284790,291.932098 687.505066,292.497009 
	C690.634338,293.000214 693.763672,293.503387 696.959595,294.628571 
	C697.302490,295.101715 697.645325,295.574829 698.062744,296.752899 
	C699.299316,300.435608 700.805115,303.533752 705.647034,299.388947 
	C705.793335,299.914429 705.939697,300.439880 706.086060,300.965363 
	C704.816406,302.047699 703.546814,303.130035 702.257690,304.229034 
	C704.393250,309.285919 706.623413,309.484161 712.150208,304.531982 
	C709.820435,300.758545 707.423279,296.875977 704.946472,292.270264 
	C702.635132,288.164581 700.323792,284.058868 697.996460,280.003418 
	C697.996460,280.003418 698.048950,279.999176 697.974976,279.299408 
	C696.990662,277.539459 696.006348,275.779510 694.553711,273.785583 
	C694.341614,273.511627 694.129456,273.237701 693.654846,272.292694 
	C693.349060,266.291351 687.306519,267.032440 682.901672,264.241760 
	C685.507568,263.396942 686.920044,262.939056 688.332214,262.481232 
	C685.818604,255.321060 685.269043,255.347656 678.028931,256.626678 
	C673.910339,257.354218 673.565063,260.445892 672.045593,263.780731 
	C672.014587,264.514587 671.983582,265.248413 671.997559,266.005585 
	C671.997559,266.005585 671.994751,265.954987 671.389099,266.019409 
M655.657715,305.934174 
	C657.434326,302.981171 659.210938,300.028168 661.418884,296.632263 
	C661.385315,292.533844 658.538269,292.781891 655.574158,292.734711 
	C653.018555,297.358673 650.518433,301.882233 647.940918,306.545898 
	C650.762207,308.411377 653.007019,309.031128 655.657715,305.934174 
M22.526974,304.998718 
	C31.539110,304.593964 40.720955,306.348724 49.400017,302.085510 
	C54.954082,299.357269 58.108109,295.295929 57.998371,289.559387 
	C57.901482,284.494293 55.180813,281.234436 49.019222,279.087555 
	C47.029694,278.394379 44.916115,278.057190 42.019932,277.353088 
	C44.238560,276.527374 45.660515,276.130585 46.962082,275.489380 
	C51.193886,273.404694 54.399506,270.137848 54.657963,265.379974 
	C54.904686,260.837952 51.950394,257.817078 47.847675,255.939056 
	C36.255032,250.632507 24.180092,253.898727 12.337597,253.045380 
	C12.337597,270.750824 12.337597,287.639221 12.337597,304.998718 
	C15.625337,304.998718 18.582848,304.998718 22.526974,304.998718 
z"/>
<path fill="#D9DAD9" opacity="1.000000" stroke="none" 
	d="
M1.000000,494.000000 
	C1.000000,492.610992 1.000000,491.222015 1.468657,489.416504 
	C21.931982,488.663025 41.926651,488.326019 61.986858,488.315247 
	C62.705761,489.121918 63.359119,489.602356 64.014793,490.418060 
	C64.377098,491.339264 64.737099,491.925262 65.097084,492.511261 
	C65.393883,491.701813 65.690689,490.892334 66.456245,490.056763 
	C87.010246,490.021729 107.095818,490.059296 127.180107,489.916229 
	C128.795135,489.904724 130.401291,488.650391 132.419800,488.032806 
	C134.474823,488.728821 136.107773,489.869965 137.770844,489.915680 
	C145.198853,490.119934 152.635422,490.011536 160.527496,489.929871 
	C176.259247,489.908051 191.532425,489.972412 207.280579,489.953583 
	C209.750229,489.913574 211.744888,489.994415 213.739563,489.994568 
	C305.438995,490.000977 397.138428,490.031219 488.837738,489.917755 
	C493.899231,489.911499 498.959198,488.705597 503.911285,488.373169 
	C505.119263,489.130249 506.433685,489.948761 507.752808,489.956421 
	C522.181885,490.040283 536.611694,489.997559 551.507202,489.999695 
	C559.981201,490.065094 567.989319,490.120026 576.018921,490.579102 
	C576.472229,491.612793 576.887268,492.775696 577.338257,492.789856 
	C582.250854,492.944122 587.173828,493.028473 592.080139,492.814178 
	C592.756165,492.784698 593.356995,491.031921 594.453247,490.053467 
	C598.611206,490.045288 602.308533,490.060547 606.022400,490.486389 
	C607.454468,491.597931 608.932129,493.006622 610.275818,492.888672 
	C621.811096,491.876434 633.216553,493.379639 645.046204,490.701050 
	C657.868103,487.797729 671.861389,489.967194 685.340881,490.145081 
	C688.416077,490.185669 691.479370,491.131744 694.548096,491.661072 
	C692.997375,493.215302 691.468445,493.910919 689.922058,493.952179 
	C662.543091,494.682159 635.164978,495.560394 607.780273,495.931580 
	C583.648376,496.258636 559.508362,495.957581 535.372803,496.086182 
	C533.578491,496.095734 531.790771,497.332520 529.531372,497.998840 
	C499.708466,497.999054 470.354218,497.999237 440.704163,497.704529 
	C439.098785,497.273102 437.789337,497.017517 436.479797,497.017120 
	C373.547791,496.997559 310.615753,496.992828 247.683777,497.041840 
	C246.122269,497.043060 244.561249,497.666260 242.531342,497.999634 
	C212.708801,497.999512 183.354904,497.999146 153.908127,497.603210 
	C152.649643,496.805481 151.490067,496.070587 150.317581,496.049377 
	C110.184937,495.324432 70.051537,494.636871 29.917046,494.021942 
	C20.280180,493.874237 10.639127,494.000000 1.000000,494.000000 
z"/>
<path fill="#C6C8C7" opacity="1.000000" stroke="none" 
	d="
M734.000000,503.000000 
	C734.000000,504.998688 734.000000,506.997345 734.000000,508.998016 
	C489.996033,509.000000 245.992081,509.000000 1.988116,509.000000 
	C1.658744,509.000000 1.329372,509.000000 1.000000,508.994385 
	C1.000000,507.323212 1.000000,505.657623 1.449952,503.496460 
	C245.933273,503.000549 489.966644,503.000275 734.000000,503.000000 
z"/>
<path fill="#CFD0CF" opacity="1.000000" stroke="none" 
	d="
M734.000000,502.600006 
	C489.966644,503.000275 245.933273,503.000549 1.449952,503.000427 
	C1.000000,501.933319 1.000000,500.866669 1.467912,499.399994 
	C8.889554,499.332916 15.841748,499.917084 22.797255,499.959656 
	C88.049698,500.358856 153.302841,500.956390 218.555511,500.926697 
	C304.296478,500.887695 390.037262,500.339508 475.778076,499.999573 
	C558.020935,499.673492 640.263855,499.333099 722.506714,499.001984 
	C726.337769,498.986542 730.168884,499.000000 734.000000,499.000000 
	C734.000000,500.066681 734.000000,501.133331 734.000000,502.600006 
z"/>
<path fill="#D4D6D5" opacity="1.000000" stroke="none" 
	d="
M734.000000,498.625000 
	C730.168884,499.000000 726.337769,498.986542 722.506714,499.001984 
	C640.263855,499.333099 558.020935,499.673492 475.778076,499.999573 
	C390.037262,500.339508 304.296478,500.887695 218.555511,500.926697 
	C153.302841,500.956390 88.049698,500.358856 22.797255,499.959656 
	C15.841748,499.917084 8.889554,499.332916 1.467912,499.000000 
	C1.000000,498.555542 1.000000,498.111115 1.468657,497.333313 
	C52.625217,497.332947 103.313118,497.665863 154.001022,497.998779 
	C183.354904,497.999146 212.708801,497.999512 242.827026,498.294678 
	C244.900818,498.726318 246.210251,498.982452 247.519730,498.982849 
	C310.452087,499.002472 373.384460,499.007172 436.316772,498.958099 
	C437.878082,498.956909 439.438934,498.332916 441.000000,497.999390 
	C470.354218,497.999237 499.708466,497.999054 530.000000,497.999329 
	C561.034485,497.666748 591.131409,497.308411 621.228882,497.007202 
	C657.320374,496.645996 693.412292,496.332977 729.504028,496.001740 
	C731.002563,495.987976 732.501343,496.000000 734.000000,496.000000 
	C734.000000,496.750000 734.000000,497.500000 734.000000,498.625000 
z"/>
<path fill="#D7D8D7" opacity="1.000000" stroke="none" 
	d="
M734.000000,495.545898 
	C732.501343,496.000000 731.002563,495.987976 729.504028,496.001740 
	C693.412292,496.332977 657.320374,496.645996 621.228882,497.007202 
	C591.131409,497.308411 561.034485,497.666748 530.468628,497.999268 
	C531.790771,497.332520 533.578491,496.095734 535.372803,496.086182 
	C559.508362,495.957581 583.648376,496.258636 607.780273,495.931580 
	C635.164978,495.560394 662.543091,494.682159 689.922058,493.952179 
	C691.468445,493.910919 692.997375,493.215302 694.548096,491.661072 
	C691.479370,491.131744 688.416077,490.185669 685.340881,490.145081 
	C671.861389,489.967194 657.868103,487.797729 645.046204,490.701050 
	C633.216553,493.379639 621.811096,491.876434 610.275818,492.888672 
	C608.932129,493.006622 607.454468,491.597931 606.488708,490.462036 
	C611.808167,490.027039 616.677795,490.027039 621.712402,490.027039 
	C621.869385,487.882324 621.975586,486.431732 622.545288,484.987732 
	C660.005798,485.329559 697.002930,485.664795 734.000000,486.000000 
	C734.000000,489.030609 734.000000,492.061188 734.000000,495.545898 
z"/>
<path fill="#BDBFBE" opacity="1.000000" stroke="none" 
	d="
M622.145020,472.984161 
	C659.117554,472.989441 696.090149,472.994720 733.531372,473.000000 
	C734.000000,474.388885 734.000000,475.777802 733.531372,477.583344 
	C696.085938,477.992645 659.109253,477.985291 622.090210,477.563477 
	C622.080261,475.760742 622.112610,474.372467 622.145020,472.984161 
z"/>
<path fill="#C6C8C7" opacity="1.000000" stroke="none" 
	d="
M622.132507,477.977936 
	C659.109253,477.985291 696.085938,477.992645 733.531372,478.000000 
	C734.000000,479.066681 734.000000,480.133331 733.531372,481.600555 
	C696.080444,481.992920 659.098267,481.984741 622.079346,481.577972 
	C622.072571,480.112244 622.102539,479.045074 622.132507,477.977936 
z"/>
<path fill="#CFD0CF" opacity="1.000000" stroke="none" 
	d="
M622.115967,481.976562 
	C659.098267,481.984741 696.080444,481.992920 733.531372,482.000549 
	C734.000000,483.066681 734.000000,484.133331 734.000000,485.600006 
	C697.002930,485.664795 660.005798,485.329559 622.519287,484.612701 
	C622.058594,483.479584 622.087280,482.728058 622.115967,481.976562 
z"/>
<path fill="#BDBFBE" opacity="1.000000" stroke="none" 
	d="
M1.000000,473.428467 
	C20.978643,472.998169 40.957287,472.996307 61.447456,473.415771 
	C61.922268,475.549957 61.885544,477.262817 61.389687,478.982300 
	C40.953701,478.992615 20.976851,478.996307 1.000000,479.000000 
	C1.000000,477.285645 1.000000,475.571289 1.000000,473.428467 
z"/>
<path fill="#D7D8D7" opacity="1.000000" stroke="none" 
	d="
M153.908127,497.603210 
	C103.313118,497.665863 52.625217,497.332947 1.468657,497.000000 
	C1.000000,496.250000 1.000000,495.500000 1.000000,494.375000 
	C10.639127,494.000000 20.280180,493.874237 29.917046,494.021942 
	C70.051537,494.636871 110.184937,495.324432 150.317581,496.049377 
	C151.490067,496.070587 152.649643,496.805481 153.908127,497.603210 
z"/>
<path fill="#C6C8C7" opacity="1.000000" stroke="none" 
	d="
M1.000000,479.416656 
	C20.976851,478.996307 40.953701,478.992615 61.440567,479.396484 
	C61.927528,481.188873 61.904476,482.573669 61.420349,483.970215 
	C40.972851,483.987946 20.986425,483.993988 1.000000,484.000000 
	C1.000000,482.611115 1.000000,481.222198 1.000000,479.416656 
z"/>
<path fill="#D4D6D5" opacity="1.000000" stroke="none" 
	d="
M1.000000,484.416656 
	C20.986425,483.993988 40.972851,483.987946 61.463280,484.372681 
	C61.951962,485.838623 61.936642,486.913818 61.921318,487.989014 
	C41.926651,488.326019 21.931982,488.663025 1.468657,489.000000 
	C1.000000,487.611115 1.000000,486.222198 1.000000,484.416656 
z"/>
<path fill="#000000" opacity="1.000000" stroke="none" 
	d="
M160.068909,490.016052 
	C152.635422,490.011536 145.198853,490.119934 137.770844,489.915680 
	C136.107773,489.869965 134.474823,488.728821 132.352722,487.671204 
	C125.249657,479.122253 117.969078,471.431854 112.153030,462.759338 
	C104.198578,450.898010 96.885406,438.540710 90.185951,425.924164 
	C84.630791,415.462555 80.143898,404.408234 75.608429,393.440857 
	C73.116356,387.414764 71.383987,381.060760 69.523209,374.791077 
	C67.484886,367.923218 65.693260,360.982147 63.794128,354.072968 
	C59.673672,290.265381 63.122097,226.387009 62.083309,162.549789 
	C62.040726,159.932892 63.240002,157.295792 63.860195,153.969864 
	C65.177994,148.852859 66.339172,144.379776 67.844765,140.025787 
	C71.960907,128.122375 75.222603,115.789528 80.640121,104.498795 
	C90.987648,82.933372 101.966454,61.581715 117.963120,43.397362 
	C127.253769,32.836140 136.600784,22.324493 145.922424,11.790541 
	C148.179367,11.193069 150.426773,10.129076 152.694962,10.082778 
	C160.508743,9.923285 168.329788,10.119287 176.628540,10.565958 
	C129.551285,49.919712 98.700783,99.475807 83.320976,158.909698 
	C85.195602,157.887573 86.711670,156.549667 87.641365,154.884399 
	C91.766151,147.496109 95.683525,139.992462 99.747612,132.569778 
	C111.380386,111.323570 126.976433,93.001656 143.822159,75.951744 
	C162.990860,56.550694 184.590179,39.879559 208.603622,26.725681 
	C218.729126,21.179218 229.479019,16.772627 239.945099,11.847889 
	C243.311737,11.231298 246.677597,10.081579 250.045135,10.076650 
	C320.996155,9.972818 391.947418,9.975886 462.898438,10.080888 
	C465.684418,10.085011 468.468597,11.304517 472.015930,11.986501 
	C477.248352,14.057971 481.778564,15.979699 486.178070,18.164679 
	C503.441895,26.738630 520.520081,35.708153 535.504456,47.975403 
	C547.530823,57.820919 559.680908,67.643585 570.675415,78.582634 
	C580.456421,88.314262 589.132080,99.255234 597.519836,110.253998 
	C603.084717,117.551109 607.282898,125.890396 612.088623,134.123672 
	C613.263733,135.661209 614.443054,136.838242 615.790649,138.317719 
	C615.969177,139.081299 615.979614,139.542435 615.752686,140.218094 
	C616.920471,142.218567 618.325684,144.004517 619.730957,145.790482 
	C619.762329,146.124878 619.793762,146.459274 619.545654,147.378693 
	C620.062012,148.648300 620.858032,149.332870 621.653992,150.017441 
	C621.769897,151.666595 621.986694,153.315704 621.987061,154.964890 
	C622.003540,222.449173 622.022644,289.933472 621.916138,357.417603 
	C621.912048,360.018341 620.675659,362.617096 619.826355,365.885010 
	C613.981140,376.285400 609.129761,386.613495 602.481323,395.614197 
	C591.734619,410.163239 580.692322,424.700195 568.123474,437.638123 
	C555.960876,450.157867 541.967896,460.970673 528.281311,471.910706 
	C520.721802,477.953217 512.140564,482.717560 504.019897,488.058105 
	C498.959198,488.705597 493.899231,489.911499 488.837738,489.917755 
	C397.138428,490.031219 305.438995,490.000977 213.739563,489.994568 
	C211.744888,489.994415 209.750229,489.913574 207.016632,489.719543 
	C206.155090,489.262604 206.122849,488.814941 205.896912,488.670776 
	C196.127289,482.436310 185.807129,476.919006 176.675659,469.862823 
	C161.407974,458.065002 146.377045,445.966766 133.552170,431.256866 
	C118.655838,414.170959 104.337914,396.795502 93.726814,376.628296 
	C93.365372,375.941345 91.517776,376.036316 89.304863,375.519958 
	C93.142517,384.485443 96.647743,392.225708 99.790192,400.110535 
	C106.026169,415.757599 113.937538,430.566559 123.820312,444.101562 
	C134.004013,458.048676 145.324860,471.165009 156.125732,484.662781 
	C157.509308,486.391846 158.757828,488.228973 160.068909,490.016052 
M503.596039,297.405975 
	C503.596039,297.405975 503.422607,297.275513 503.136230,296.807098 
	C502.433746,296.201111 501.731232,295.595123 500.888977,294.412476 
	C500.276947,293.929962 499.664917,293.447479 498.806335,292.361420 
	C497.885132,291.237213 496.963928,290.113007 495.708160,288.395508 
	C493.545288,286.712311 491.382416,285.029144 488.957611,283.142151 
	C491.504211,281.481873 493.736755,279.323914 496.395142,278.424042 
	C504.572144,275.656189 506.169861,271.294098 500.990845,264.216980 
	C501.180786,260.697266 499.179993,258.891602 495.667969,257.308960 
	C492.769531,256.602600 489.871063,255.896225 486.055206,255.017929 
	C480.719208,255.096619 475.383209,255.175293 469.128723,255.090134 
	C465.907562,255.090134 462.686401,255.090134 459.172333,255.090134 
	C459.172333,258.954498 459.172333,262.494171 459.029968,266.941040 
	C459.075317,270.619507 459.120667,274.297974 459.029083,278.764954 
	C459.077637,282.851471 459.126190,286.937958 459.041046,291.877716 
	C459.427826,294.571259 459.814575,297.264832 460.092590,300.802856 
	C459.960510,302.812408 459.828430,304.821930 459.696136,306.834656 
	C462.356415,306.834656 464.917480,306.834656 467.735107,306.834656 
	C467.735107,303.736908 467.735107,300.840942 467.932129,297.136139 
	C467.671875,295.069397 467.411621,293.002686 467.067352,290.133911 
	C467.555573,288.487549 468.043823,286.841187 468.802307,284.283478 
	C473.911865,285.195282 478.956726,286.095551 484.285736,287.565094 
	C485.174683,288.049713 486.063599,288.534332 487.122406,289.576050 
	C487.709351,290.064423 488.296326,290.552826 489.011017,291.739868 
	C491.310638,293.537964 493.610229,295.336060 495.994354,297.863007 
	C499.695862,307.120514 500.429749,307.540863 511.437592,306.429382 
	C509.469788,304.183533 507.653107,302.110199 505.789429,299.459961 
	C505.098999,298.835114 504.408539,298.210297 503.596039,297.405975 
M552.094727,268.603333 
	C552.159851,269.098816 552.224976,269.594299 552.176270,270.886169 
	C552.233276,272.223724 552.290222,273.561249 552.072266,275.795898 
	C552.175110,278.911499 552.277954,282.027130 552.324829,285.892181 
	C552.312500,286.891571 552.300171,287.890930 552.038208,289.573608 
	C552.071533,291.375031 552.104919,293.176483 552.022156,295.787292 
	C552.061584,296.874329 552.101013,297.961395 552.019714,299.906830 
	C552.054871,301.926422 552.090088,303.945984 552.055542,306.833527 
	C559.384338,306.803497 566.713135,306.773468 574.764832,306.865204 
	C575.494324,306.824249 576.223755,306.783325 577.798462,306.926178 
	C580.207092,306.661987 582.615784,306.397766 585.738098,306.063568 
	C586.533997,305.782593 587.329956,305.501617 588.182373,305.285004 
	C588.182373,305.285004 588.266724,305.300018 589.057251,305.250061 
	C596.250854,304.010193 602.002502,300.285461 606.947266,294.197601 
	C608.322754,291.138702 609.698181,288.079773 611.795288,284.648560 
	C611.028320,276.359924 611.098755,267.686859 601.349670,262.883636 
	C596.201355,257.912445 589.809021,256.935944 582.253845,257.030151 
	C581.350403,256.696411 580.451355,256.088959 579.542725,256.074127 
	C574.391174,255.990173 569.229797,256.222748 564.086792,256.000183 
	C560.238953,255.833664 556.413879,255.142670 552.275879,254.649094 
	C552.275879,258.927246 552.275879,262.515228 552.215454,266.696320 
	C552.249939,267.091095 552.284424,267.485840 552.094727,268.603333 
M407.988739,304.877808 
	C411.095917,305.824127 414.203094,306.770477 417.310272,307.716797 
	C417.570801,307.216980 417.831329,306.717133 418.091888,306.217285 
	C417.090515,304.434937 416.089172,302.652557 415.000854,300.156036 
	C410.688965,292.431885 406.377045,284.707733 402.001678,276.282043 
	C400.961884,274.529968 399.922089,272.777863 398.779785,270.330597 
	C396.842499,267.241638 394.905243,264.152679 392.823608,260.373993 
	C392.139496,258.923218 391.455383,257.472443 390.808136,255.538147 
	C390.604767,255.167068 390.330353,255.103760 389.110657,255.216568 
	C386.756195,255.225143 384.401764,255.233719 381.316101,255.086960 
	C379.569641,257.891846 377.673889,260.615906 376.104156,263.516418 
	C370.988251,272.969696 365.991302,282.487427 360.348267,292.203644 
	C359.624054,293.451813 358.899841,294.699982 357.873688,296.599518 
	C356.030151,299.895660 354.186646,303.191803 352.160797,306.813904 
	C362.296051,307.142975 362.296051,307.142975 365.657990,299.810364 
	C365.789246,299.242859 365.920532,298.675354 366.662415,297.702240 
	C367.993225,293.241943 370.543823,291.399628 375.584625,291.845612 
	C384.145813,292.603058 392.785065,292.478149 401.769287,293.230194 
	C402.502625,294.502655 403.235992,295.775146 403.992828,297.762024 
	C405.279144,299.871033 406.565430,301.980042 407.988739,304.877808 
M298.331573,280.237213 
	C294.953308,286.621490 291.575012,293.005768 288.546387,298.729279 
	C282.418121,286.246826 276.041199,273.202759 269.612091,260.184479 
	C266.101013,253.074875 265.603546,252.890671 256.883118,254.741730 
	C258.286865,257.200623 259.731537,259.518036 260.972351,261.939941 
	C268.036652,275.728577 275.040771,289.548065 282.092957,303.342926 
	C283.755432,306.594879 292.468140,307.475952 294.152130,304.425049 
	C297.287720,298.744415 300.102600,292.886719 303.681061,286.768707 
	C309.393646,276.012360 315.106262,265.256042 320.979126,254.197968 
	C317.259125,254.197968 314.290100,254.197968 311.228455,254.197968 
	C307.104401,262.830811 303.028656,271.362457 298.331573,280.237213 
M111.881660,273.315338 
	C111.881660,268.694763 111.881660,264.074158 111.881660,258.971069 
	C121.857315,258.971069 131.262894,258.971069 140.686386,258.971069 
	C140.686386,256.735779 140.686386,255.013901 140.686386,253.355164 
	C127.984703,253.355164 115.597321,253.355164 103.393951,253.355164 
	C103.393951,271.099396 103.393951,288.484009 103.393951,305.750977 
	C116.401093,305.750977 129.011017,305.750977 141.704498,305.750977 
	C141.704498,303.767609 141.704498,302.046021 141.704498,299.857574 
	C131.676147,299.857574 121.931404,299.857574 112.255081,299.857574 
	C112.255081,293.656860 112.255081,287.941101 112.255081,281.863159 
	C121.231735,281.863159 129.836380,281.863159 138.553528,281.863159 
	C138.553528,279.763123 138.553528,278.054901 138.553528,275.997681 
	C130.768112,275.997681 123.295471,276.080292 115.828026,275.920258 
	C114.509132,275.891968 113.211960,274.850433 111.881660,273.315338 
M186.001190,294.481354 
	C186.001190,298.242218 186.001190,302.003082 186.001190,305.800354 
	C199.290070,305.800354 211.899780,305.800354 224.576508,305.800354 
	C224.576508,304.098602 224.576508,302.605194 224.576508,300.175842 
	C214.476837,300.175842 204.805145,300.175842 194.832443,300.175842 
	C194.832443,284.295135 194.832443,269.355042 194.832443,254.297775 
	C191.774933,254.297775 189.054413,254.297775 186.001190,254.297775 
	C186.001190,267.556885 186.001190,280.522461 186.001190,294.481354 
z"/>
<path fill="#FDFDFD" opacity="1.000000" stroke="none" 
	d="
M145.797028,11.416117 
	C136.600784,22.324493 127.253769,32.836140 117.963120,43.397362 
	C101.966454,61.581715 90.987648,82.933372 80.640121,104.498795 
	C75.222603,115.789528 71.960907,128.122375 67.844765,140.025787 
	C66.339172,144.379776 65.177994,148.852859 63.764240,153.638245 
	C63.110325,152.571915 62.066402,151.139832 62.063820,149.705887 
	C61.981602,104.044968 61.999214,58.383865 62.014580,12.722798 
	C62.014797,12.075538 62.177948,11.428332 62.312149,10.431212 
	C63.600327,10.283304 64.865944,10.012444 66.131821,10.011181 
	C91.295395,9.986068 116.459030,9.975920 141.622482,10.036608 
	C142.972992,10.039865 144.321945,10.691751 145.797028,11.416117 
z"/>
<path fill="#FDFDFD" opacity="1.000000" stroke="none" 
	d="
M63.398949,354.144989 
	C65.693260,360.982147 67.484886,367.923218 69.523209,374.791077 
	C71.383987,381.060760 73.116356,387.414764 75.608429,393.440857 
	C80.143898,404.408234 84.630791,415.462555 90.185951,425.924164 
	C96.885406,438.540710 104.198578,450.898010 112.153030,462.759338 
	C117.969078,471.431854 125.249657,479.122253 131.944504,487.612030 
	C130.401291,488.650391 128.795135,489.904724 127.180107,489.916229 
	C107.095818,490.059296 87.010246,490.021729 66.127380,490.033844 
	C64.890671,490.052338 64.451576,490.067596 64.012482,490.082825 
	C63.359119,489.602356 62.705761,489.121918 61.986862,488.315247 
	C61.936642,486.913818 61.951962,485.838623 61.924355,484.360962 
	C61.904476,482.573669 61.927528,481.188873 61.899700,479.389893 
	C61.885544,477.262817 61.922268,475.549957 61.906998,473.410614 
	C61.899990,435.243713 61.930748,397.503204 62.032745,359.762909 
	C62.037743,357.913391 62.665833,356.065613 63.398949,354.144989 
z"/>
<path fill="#F9F9F9" opacity="1.000000" stroke="none" 
	d="
M239.865631,11.451998 
	C229.479019,16.772627 218.729126,21.179218 208.603622,26.725681 
	C184.590179,39.879559 162.990860,56.550694 143.822159,75.951744 
	C126.976433,93.001656 111.380386,111.323570 99.747612,132.569778 
	C95.683525,139.992462 91.766151,147.496109 87.641365,154.884399 
	C86.711670,156.549667 85.195602,157.887573 83.320976,158.909698 
	C98.700783,99.475807 129.551285,49.919712 177.175598,10.544717 
	C197.412567,10.088256 217.582962,10.028709 237.753342,10.035069 
	C238.431046,10.035283 239.108566,10.700734 239.865631,11.451998 
z"/>
<path fill="#F8F8F8" opacity="1.000000" stroke="none" 
	d="
M615.989990,140.003586 
	C615.979614,139.542435 615.969177,139.081299 615.797363,137.966705 
	C614.454956,136.129898 613.273865,134.946533 612.092834,133.763168 
	C607.282898,125.890396 603.084717,117.551109 597.519836,110.253998 
	C589.132080,99.255234 580.456421,88.314262 570.675415,78.582634 
	C559.680908,67.643585 547.530823,57.820919 535.504456,47.975403 
	C520.520081,35.708153 503.441895,26.738630 486.178070,18.164679 
	C481.778564,15.979699 477.248352,14.057971 472.415283,11.934221 
	C473.328796,11.227371 474.602203,10.064022 475.882111,10.056829 
	C493.692169,9.956748 511.503113,10.014951 529.777710,10.406494 
	C531.876465,11.983678 533.620239,13.066916 535.129333,14.413215 
	C548.408447,26.259882 560.861694,38.850155 572.087524,52.740143 
	C583.015259,66.261353 592.476501,80.627373 600.429688,96.029243 
	C604.309265,103.542320 608.322388,111.011871 611.691772,118.754959 
	C614.332092,124.822693 616.058899,131.286484 618.225525,137.562576 
	C619.011108,139.838303 618.258484,140.584915 615.989990,140.003586 
z"/>
<path fill="#F8F8F8" opacity="1.000000" stroke="none" 
	d="
M503.911285,488.373169 
	C512.140564,482.717560 520.721802,477.953217 528.281311,471.910706 
	C541.967896,460.970673 555.960876,450.157867 568.123474,437.638123 
	C580.692322,424.700195 591.734619,410.163239 602.481323,395.614197 
	C609.129761,386.613495 613.981140,376.285400 619.840698,366.287537 
	C622.825684,368.467102 622.851013,373.363281 620.155640,378.258209 
	C619.949463,380.527740 619.975403,382.123138 619.383667,383.441284 
	C614.295349,394.775848 609.317627,406.168488 603.880981,417.336487 
	C593.770630,438.105255 580.417419,456.701843 565.092834,473.927155 
	C560.364685,479.241791 555.722717,484.633026 551.041260,489.989197 
	C536.611694,489.997559 522.181885,490.040283 507.752808,489.956421 
	C506.433685,489.948761 505.119263,489.130249 503.911285,488.373169 
z"/>
<path fill="#070707" opacity="1.000000" stroke="none" 
	d="
M615.752625,140.218094 
	C618.258484,140.584915 619.011108,139.838303 618.225525,137.562576 
	C616.058899,131.286484 614.332092,124.822693 611.691772,118.754959 
	C608.322388,111.011871 604.309265,103.542320 600.429688,96.029243 
	C592.476501,80.627373 583.015259,66.261353 572.087524,52.740143 
	C560.861694,38.850155 548.408447,26.259882 535.129333,14.413215 
	C533.620239,13.066916 531.876465,11.983678 530.264160,10.422008 
	C540.391846,10.192451 550.496765,10.319352 561.062378,10.627846 
	C570.230408,20.564411 579.196411,30.102951 587.581421,40.127552 
	C598.784607,53.521355 608.600098,67.894928 616.293274,83.657539 
	C617.789429,86.723091 620.050171,89.415497 621.958130,92.280029 
	C621.978210,107.828407 622.073303,123.377472 621.929688,138.924332 
	C621.910217,141.027390 620.692261,143.119370 619.880066,145.503479 
	C618.325684,144.004517 616.920471,142.218567 615.752625,140.218094 
z"/>
<path fill="#FDFDFD" opacity="1.000000" stroke="none" 
	d="
M621.934021,91.793304 
	C620.050171,89.415497 617.789429,86.723091 616.293274,83.657539 
	C608.600098,67.894928 598.784607,53.521355 587.581421,40.127552 
	C579.196411,30.102951 570.230408,20.564411 561.458374,10.425810 
	C581.314209,10.042180 601.234680,10.042180 621.909851,10.042180 
	C621.909851,37.316601 621.909851,64.311592 621.934021,91.793304 
z"/>
<path fill="#060606" opacity="1.000000" stroke="none" 
	d="
M551.507202,489.999695 
	C555.722717,484.633026 560.364685,479.241791 565.092834,473.927155 
	C580.417419,456.701843 593.770630,438.105255 603.880981,417.336487 
	C609.317627,406.168488 614.295349,394.775848 619.383667,383.441284 
	C619.975403,382.123138 619.949463,380.527740 620.206177,378.660278 
	C620.806152,379.608154 621.921692,380.951752 621.934509,382.305725 
	C622.064026,396.029633 622.090393,409.756195 621.925415,423.479340 
	C621.902344,425.400726 620.693054,427.307861 619.873596,429.948975 
	C619.185974,431.428772 618.624695,432.160431 618.134033,432.936737 
	C611.501770,443.429871 605.194763,454.146667 598.154358,464.358002 
	C592.538147,472.503784 586.031067,480.035370 579.577881,487.879272 
	C578.802307,488.567383 578.368347,489.215790 577.610474,489.914093 
	C576.856934,490.034302 576.427185,490.104614 575.997437,490.174927 
	C567.989319,490.120026 559.981201,490.065094 551.507202,489.999695 
z"/>
<path fill="#C2B72A" opacity="1.000000" stroke="none" 
	d="
M22.033667,304.998718 
	C18.582848,304.998718 15.625337,304.998718 12.337597,304.998718 
	C12.337597,287.639221 12.337597,270.750824 12.337597,253.045380 
	C24.180092,253.898727 36.255032,250.632507 47.847675,255.939056 
	C51.950394,257.817078 54.904686,260.837952 54.657963,265.379974 
	C54.399506,270.137848 51.193886,273.404694 46.962082,275.489380 
	C45.660515,276.130585 44.238560,276.527374 42.019932,277.353088 
	C44.916115,278.057190 47.029694,278.394379 49.019222,279.087555 
	C55.180813,281.234436 57.901482,284.494293 57.998371,289.559387 
	C58.108109,295.295929 54.954082,299.357269 49.400017,302.085510 
	C40.720955,306.348724 31.539110,304.593964 22.033667,304.998718 
M20.998802,286.625458 
	C20.998802,290.894897 20.998802,295.164337 20.998802,300.458496 
	C28.303480,299.833069 35.049034,299.702759 41.604218,298.518646 
	C45.262432,297.857788 48.776894,295.498108 48.929955,290.887756 
	C49.062469,286.896210 45.630936,282.846863 40.881519,282.181091 
	C34.568123,281.296082 28.158138,281.100128 21.391117,280.577332 
	C21.219444,282.804779 21.109184,284.235443 20.998802,286.625458 
M27.543148,275.001251 
	C32.055054,274.322632 36.747681,274.171661 40.993958,272.717377 
	C42.807995,272.096161 44.723927,268.747406 44.705463,266.654694 
	C44.687145,264.578369 42.742516,261.426575 40.862141,260.659241 
	C34.644348,258.121918 27.983166,257.575165 21.354889,258.234406 
	C21.354889,264.111420 21.354889,269.342438 21.354889,275.001190 
	C23.336369,275.001190 24.964809,275.001190 27.543148,275.001251 
z"/>
<path fill="#FDFDFD" opacity="1.000000" stroke="none" 
	d="
M579.919434,487.839600 
	C586.031067,480.035370 592.538147,472.503784 598.154358,464.358002 
	C605.194763,454.146667 611.501770,443.429871 618.134033,432.936737 
	C618.624695,432.160431 619.185974,431.428772 619.887573,430.351562 
	C620.711060,431.449707 621.907593,432.865631 621.925842,434.296661 
	C622.086670,446.880676 622.037720,459.467377 622.097900,472.518738 
	C622.112610,474.372467 622.080261,475.760742 622.090210,477.563477 
	C622.102539,479.045074 622.072571,480.112244 622.079346,481.577972 
	C622.087280,482.728058 622.058594,483.479584 622.055786,484.606140 
	C621.975586,486.431732 621.869385,487.882324 621.712402,490.027039 
	C616.677795,490.027039 611.808167,490.027039 606.472229,490.051422 
	C602.308533,490.060547 598.611206,490.045288 593.989990,490.028748 
	C588.716492,490.007965 584.366699,489.988403 579.990967,489.614349 
	C579.949829,488.786438 579.934631,488.313019 579.919434,487.839600 
z"/>
<path fill="#939391" opacity="1.000000" stroke="none" 
	d="
M672.135681,263.052246 
	C673.565063,260.445892 673.910339,257.354218 678.028931,256.626678 
	C685.269043,255.347656 685.818604,255.321060 688.332214,262.481232 
	C686.920044,262.939056 685.507568,263.396942 682.901672,264.241760 
	C687.306519,267.032440 693.349060,266.291351 693.478943,272.779297 
	C692.272705,273.262390 691.232483,273.167603 690.214417,273.277557 
	C688.807861,273.429413 687.418030,273.735535 685.872803,273.660278 
	C683.926758,269.901794 682.128906,266.458649 680.419434,263.184753 
	C679.763062,264.264130 678.931091,265.632294 677.733582,267.026611 
	C675.283936,268.048004 673.199829,269.043274 671.115784,270.038574 
	C671.089844,269.575317 671.063843,269.112030 671.133057,268.044312 
	C671.483704,266.944885 671.739258,266.449951 671.994751,265.954987 
	C671.994751,265.954987 671.997559,266.005585 672.369995,265.996887 
	C673.754150,265.474670 674.765869,264.961121 675.777649,264.447571 
	C674.563660,263.982452 673.349670,263.517365 672.135681,263.052246 
M690.417542,269.482971 
	C690.417542,269.482971 690.528381,269.417145 690.417542,269.482971 
z"/>
<path fill="#848482" opacity="1.000000" stroke="none" 
	d="
M671.018555,270.396393 
	C673.199829,269.043274 675.283936,268.048004 677.685669,267.390289 
	C674.680786,273.841248 671.358215,279.954681 667.650513,286.038605 
	C665.027039,285.802307 662.092651,287.768799 660.994873,284.000824 
	C662.728516,280.526428 664.219177,276.895447 666.310059,273.651276 
	C667.200867,272.269073 669.346069,271.695374 671.018555,270.396393 
z"/>
<path fill="#9D9D9C" opacity="1.000000" stroke="none" 
	d="
M705.026123,292.993408 
	C707.423279,296.875977 709.820435,300.758545 712.150208,304.531982 
	C706.623413,309.484161 704.393250,309.285919 702.257690,304.229034 
	C703.546814,303.130035 704.816406,302.047699 706.086060,300.965363 
	C705.939697,300.439880 705.793335,299.914429 705.647034,299.388947 
	C700.805115,303.533752 699.299316,300.435608 698.261780,296.107178 
	C700.649231,294.638794 702.837708,293.816101 705.026123,292.993408 
z"/>
<path fill="#9D9D9C" opacity="1.000000" stroke="none" 
	d="
M696.892944,294.006592 
	C693.763672,293.503387 690.634338,293.000214 687.248596,291.867340 
	C686.999023,290.804260 687.005920,290.370880 687.458496,289.949432 
	C690.146729,289.961395 692.389404,289.961395 695.445557,289.961395 
	C694.564880,286.238495 693.898682,283.422089 693.153320,280.271210 
	C695.138000,280.160919 696.593506,280.080048 698.048950,279.999176 
	C698.048950,279.999176 697.996460,280.003418 697.999268,280.410095 
	C698.661316,282.629120 699.471069,284.403717 699.938538,286.264282 
	C700.431030,288.224823 701.005371,290.331848 700.704529,292.242828 
	C700.583557,293.011688 698.230286,293.429199 696.892944,294.006592 
z"/>
<path fill="#939391" opacity="1.000000" stroke="none" 
	d="
M687.012878,289.937469 
	C687.005920,290.370880 686.999023,290.804260 686.998535,291.560486 
	C681.284790,291.932098 675.564697,291.980927 669.284424,291.693054 
	C668.482788,290.235413 668.241394,289.114441 668.468140,287.979797 
	C674.978271,288.013885 681.020264,288.061646 687.047180,288.414246 
	C687.025696,289.125183 687.019287,289.531342 687.012878,289.937469 
z"/>
<path fill="#7D7C76" opacity="1.000000" stroke="none" 
	d="
M687.458496,289.949432 
	C687.019287,289.531342 687.025696,289.125183 687.435303,288.380615 
	C689.349060,287.927399 690.859558,287.812622 692.755005,287.668610 
	C690.693420,283.438263 688.907776,279.774048 687.548218,276.091431 
	C690.323547,275.388580 692.672791,274.704071 695.022034,274.019562 
	C696.006348,275.779510 696.990662,277.539459 698.011963,279.649292 
	C696.593506,280.080048 695.138000,280.160919 693.153320,280.271210 
	C693.898682,283.422089 694.564880,286.238495 695.445557,289.961395 
	C692.389404,289.961395 690.146729,289.961395 687.458496,289.949432 
z"/>
<path fill="#8C8B87" opacity="1.000000" stroke="none" 
	d="
M654.925781,306.031891 
	C653.007019,309.031128 650.762207,308.411377 647.940918,306.545898 
	C650.518433,301.882233 653.018555,297.358673 655.574158,292.734711 
	C658.538269,292.781891 661.385315,292.533844 660.810791,296.820007 
	C657.102112,299.153076 654.001526,301.298431 650.325623,303.841858 
	C652.621948,304.935089 653.773865,305.483490 654.925781,306.031891 
z"/>
<path fill="#A6A6A5" opacity="1.000000" stroke="none" 
	d="
M668.000000,287.993469 
	C668.241394,289.114441 668.482788,290.235413 668.862122,291.678528 
	C667.828003,292.157318 666.588135,292.636047 665.497559,292.406250 
	C662.900940,291.859161 660.374939,290.977173 657.703552,290.196320 
	C658.554504,288.417694 659.505493,286.429901 660.725708,284.221466 
	C662.092651,287.768799 665.027039,285.802307 667.634399,286.358643 
	C668.002258,287.136597 668.001160,287.565033 668.000000,287.993469 
z"/>
<path fill="#BDBFBE" opacity="1.000000" stroke="none" 
	d="
M655.291748,305.983032 
	C653.773865,305.483490 652.621948,304.935089 650.325623,303.841858 
	C654.001526,301.298431 657.102112,299.153076 660.595093,297.041443 
	C659.210938,300.028168 657.434326,302.981171 655.291748,305.983032 
z"/>
<path fill="#848482" opacity="1.000000" stroke="none" 
	d="
M696.926270,294.317596 
	C698.230286,293.429199 700.583557,293.011688 700.704529,292.242828 
	C701.005371,290.331848 700.431030,288.224823 699.938538,286.264282 
	C699.471069,284.403717 698.661316,282.629120 698.007263,280.384949 
	C700.323792,284.058868 702.635132,288.164581 704.986328,292.631836 
	C702.837708,293.816101 700.649231,294.638794 698.224487,295.754700 
	C697.645325,295.574829 697.302490,295.101715 696.926270,294.317596 
z"/>
<path fill="#A6A6A5" opacity="1.000000" stroke="none" 
	d="
M694.787842,273.902588 
	C692.672791,274.704071 690.323547,275.388580 687.414429,275.819702 
	C686.576721,275.036072 686.298828,274.505798 686.020996,273.975555 
	C687.418030,273.735535 688.807861,273.429413 690.214417,273.277557 
	C691.232483,273.167603 692.272705,273.262390 693.610229,273.114807 
	C694.129456,273.237701 694.341614,273.511627 694.787842,273.902588 
z"/>
<path fill="#848482" opacity="1.000000" stroke="none" 
	d="
M672.090637,263.416504 
	C673.349670,263.517365 674.563660,263.982452 675.777649,264.447571 
	C674.765869,264.961121 673.754150,265.474670 672.347534,265.985229 
	C671.983582,265.248413 672.014587,264.514587 672.090637,263.416504 
z"/>
<path fill="#070707" opacity="1.000000" stroke="none" 
	d="
M621.624268,149.706161 
	C620.858032,149.332870 620.062012,148.648300 619.434875,147.608612 
	C620.267334,147.967285 620.930969,148.681076 621.624268,149.706161 
z"/>
<path fill="#848482" opacity="1.000000" stroke="none" 
	d="
M671.691895,265.987183 
	C671.739258,266.449951 671.483704,266.944885 671.120911,267.696472 
	C671.138794,267.308533 671.263977,266.663971 671.691895,265.987183 
z"/>
<path fill="#F7F7F7" opacity="1.000000" stroke="none" 
	d="
M160.527496,489.929871 
	C158.757828,488.228973 157.509308,486.391846 156.125732,484.662781 
	C145.324860,471.165009 134.004013,458.048676 123.820312,444.101562 
	C113.937538,430.566559 106.026169,415.757599 99.790192,400.110535 
	C96.647743,392.225708 93.142517,384.485443 89.304863,375.519958 
	C91.517776,376.036316 93.365372,375.941345 93.726814,376.628296 
	C104.337914,396.795502 118.655838,414.170959 133.552170,431.256866 
	C146.377045,445.966766 161.407974,458.065002 176.675659,469.862823 
	C185.807129,476.919006 196.127289,482.436310 205.896912,488.670776 
	C206.122849,488.814941 206.155090,489.262604 206.541656,489.802734 
	C191.532425,489.972412 176.259247,489.908051 160.527496,489.929871 
z"/>
<path fill="#D7D8D7" opacity="1.000000" stroke="none" 
	d="
M440.704163,497.704529 
	C439.438934,498.332916 437.878082,498.956909 436.316772,498.958099 
	C373.384460,499.007172 310.452087,499.002472 247.519730,498.982849 
	C246.210251,498.982452 244.900818,498.726318 243.295685,498.294434 
	C244.561249,497.666260 246.122269,497.043060 247.683777,497.041840 
	C310.615753,496.992828 373.547791,496.997559 436.479797,497.017120 
	C437.789337,497.017517 439.098785,497.273102 440.704163,497.704529 
z"/>
<path fill="#D7D8D7" opacity="1.000000" stroke="none" 
	d="
M580.016968,489.968842 
	C584.366699,489.988403 588.716492,490.007965 593.529419,490.052216 
	C593.356995,491.031921 592.756165,492.784698 592.080139,492.814178 
	C587.173828,493.028473 582.250854,492.944122 577.338257,492.789856 
	C576.887268,492.775696 576.472229,491.612793 576.018921,490.579102 
	C576.427185,490.104614 576.856934,490.034302 577.754639,490.156708 
	C578.820740,490.222565 579.418823,490.095703 580.016968,489.968842 
z"/>
<path fill="#D4D6D5" opacity="1.000000" stroke="none" 
	d="
M64.014793,490.418060 
	C64.451576,490.067596 64.890671,490.052338 65.658630,490.059998 
	C65.690689,490.892334 65.393883,491.701813 65.097084,492.511261 
	C64.737099,491.925262 64.377098,491.339264 64.014793,490.418060 
z"/>
<path fill="#C0B62C" opacity="1.000000" stroke="none" 
	d="
M111.893211,273.796082 
	C113.211960,274.850433 114.509132,275.891968 115.828026,275.920258 
	C123.295471,276.080292 130.768112,275.997681 138.553528,275.997681 
	C138.553528,278.054901 138.553528,279.763123 138.553528,281.863159 
	C129.836380,281.863159 121.231735,281.863159 112.255081,281.863159 
	C112.255081,287.941101 112.255081,293.656860 112.255081,299.857574 
	C121.931404,299.857574 131.676147,299.857574 141.704498,299.857574 
	C141.704498,302.046021 141.704498,303.767609 141.704498,305.750977 
	C129.011017,305.750977 116.401093,305.750977 103.393951,305.750977 
	C103.393951,288.484009 103.393951,271.099396 103.393951,253.355164 
	C115.597321,253.355164 127.984703,253.355164 140.686386,253.355164 
	C140.686386,255.013901 140.686386,256.735779 140.686386,258.971069 
	C131.262894,258.971069 121.857315,258.971069 111.881660,258.971069 
	C111.881660,264.074158 111.881660,268.694763 111.893211,273.796082 
z"/>
<path fill="#C2B72A" opacity="1.000000" stroke="none" 
	d="
M303.050964,287.102753 
	C300.102600,292.886719 297.287720,298.744415 294.152130,304.425049 
	C292.468140,307.475952 283.755432,306.594879 282.092957,303.342926 
	C275.040771,289.548065 268.036652,275.728577 260.972351,261.939941 
	C259.731537,259.518036 258.286865,257.200623 256.883118,254.741730 
	C265.603546,252.890671 266.101013,253.074875 269.612091,260.184479 
	C276.041199,273.202759 282.418121,286.246826 288.546387,298.729279 
	C291.575012,293.005768 294.953308,286.621490 298.781555,280.391724 
	C300.504700,282.731750 301.777832,284.917267 303.050964,287.102753 
z"/>
<path fill="#C2B72A" opacity="1.000000" stroke="none" 
	d="
M186.001190,293.984711 
	C186.001190,280.522461 186.001190,267.556885 186.001190,254.297775 
	C189.054413,254.297775 191.774933,254.297775 194.832443,254.297775 
	C194.832443,269.355042 194.832443,284.295135 194.832443,300.175842 
	C204.805145,300.175842 214.476837,300.175842 224.576508,300.175842 
	C224.576508,302.605194 224.576508,304.098602 224.576508,305.800354 
	C211.899780,305.800354 199.290070,305.800354 186.001190,305.800354 
	C186.001190,302.003082 186.001190,298.242218 186.001190,293.984711 
z"/>
<path fill="#8C8B87" opacity="1.000000" stroke="none" 
	d="
M401.391510,292.724060 
	C392.785065,292.478149 384.145813,292.603058 375.584625,291.845612 
	C370.543823,291.399628 367.993225,293.241943 366.294861,297.560699 
	C365.004547,296.637115 364.081757,295.855072 363.152924,295.067902 
	C364.187561,294.103882 364.896637,293.443268 366.161530,292.264740 
	C363.860168,292.139191 362.404388,292.059784 360.948578,291.980347 
	C365.991302,282.487427 370.988251,272.969696 376.104156,263.516418 
	C377.673889,260.615906 379.569641,257.891846 381.655273,255.524689 
	C381.363281,257.345245 380.732086,258.728088 379.793030,260.785339 
	C381.954590,260.889801 383.517700,260.965332 385.020752,261.403076 
	C380.803741,270.111603 376.646729,278.457886 372.544983,286.693237 
	C381.117645,286.693237 389.450775,286.693237 398.020996,286.693237 
	C397.541534,285.193390 397.201691,284.130280 397.232697,283.093811 
	C399.383911,283.842407 401.164246,284.564423 402.944611,285.286407 
	C403.217590,284.902802 403.490570,284.519165 403.763550,284.135559 
	C402.179901,281.760864 400.596252,279.386200 399.394226,277.016724 
	C400.538940,277.009155 401.302032,276.996368 402.065125,276.983582 
	C406.377045,284.707733 410.688965,292.431885 414.847046,300.794220 
	C413.127014,302.286682 411.560822,303.140961 409.997009,303.585388 
	C410.131805,301.430389 410.365845,299.685547 410.371063,297.940063 
	C410.377625,295.732208 410.028229,293.670044 406.997009,293.996704 
	C407.000671,294.000671 407.007385,294.007416 407.002136,293.577362 
	C406.276031,291.448700 405.907013,288.628815 404.765472,288.270599 
	C401.834839,287.350952 402.028809,290.007690 401.848877,292.157532 
	C401.679596,292.332123 401.391510,292.724060 401.391510,292.724060 
z"/>
<path fill="#8C8B87" opacity="1.000000" stroke="none" 
	d="
M459.174744,291.024475 
	C459.126190,286.937958 459.077637,282.851471 459.468994,278.365234 
	C462.078339,276.621643 464.247742,275.277740 466.411011,273.931213 
	C464.974548,272.634674 463.544128,271.340729 462.113708,270.046783 
	C462.410858,269.779968 462.707977,269.513123 463.005127,269.246277 
	C464.622009,269.824127 466.238922,270.401947 467.919617,271.431763 
	C467.983398,274.140717 467.983398,276.397736 467.983398,278.597229 
	C474.090454,279.041260 479.652161,279.899109 485.175201,279.697540 
	C489.274017,279.547943 494.660889,273.664032 494.918549,270.067749 
	C495.276611,265.069580 491.565643,263.091949 488.079468,260.872589 
	C492.212250,257.861633 485.641327,257.975830 486.986603,255.759903 
	C486.978455,255.569992 486.972626,255.189865 486.972626,255.189865 
	C489.871063,255.896225 492.769531,256.602600 495.585175,257.884399 
	C493.619324,263.649292 496.624084,264.816833 500.860229,264.971161 
	C506.169861,271.294098 504.572144,275.656189 496.395142,278.424042 
	C493.736755,279.323914 491.504211,281.481873 488.957611,283.142151 
	C491.382416,285.029144 493.545288,286.712311 495.470642,288.691589 
	C494.153900,288.990143 493.074707,288.992615 491.939240,288.648132 
	C489.664368,286.475708 487.445770,284.650269 484.545868,282.264313 
	C484.281891,284.559082 484.141754,285.777435 484.001587,286.995819 
	C478.956726,286.095551 473.911865,285.195282 468.802307,284.283478 
	C468.043823,286.841187 467.555573,288.487549 466.728149,290.549011 
	C463.984253,290.984253 461.579498,291.004364 459.174744,291.024475 
z"/>
<path fill="#939391" opacity="1.000000" stroke="none" 
	d="
M606.816467,294.944794 
	C602.002502,300.285461 596.250854,304.010193 588.563782,304.908325 
	C587.031311,303.336884 585.992310,302.107178 585.176880,300.583496 
	C593.185852,298.616455 600.647461,294.848236 602.621643,282.837677 
	C603.496277,277.516327 599.596619,269.633179 593.976318,265.731781 
	C594.001343,264.906128 594.014709,264.434082 594.420410,263.979004 
	C597.207886,263.845123 599.963440,267.102112 601.965820,263.239227 
	C611.098755,267.686859 611.028320,276.359924 611.092041,284.697144 
	C608.978943,284.456299 607.569031,284.166870 607.054993,284.061371 
	C605.353455,286.617981 604.082886,288.527100 602.815430,290.431427 
	C604.002991,291.770996 605.409729,293.357910 606.816467,294.944794 
z"/>
<path fill="#BAAF2A" opacity="1.000000" stroke="none" 
	d="
M303.366028,286.935730 
	C301.777832,284.917267 300.504700,282.731750 299.092255,280.220184 
	C303.028656,271.362457 307.104401,262.830811 311.228455,254.197968 
	C314.290100,254.197968 317.259125,254.197968 320.979126,254.197968 
	C315.106262,265.256042 309.393646,276.012360 303.366028,286.935730 
z"/>
<path fill="#8C8B87" opacity="1.000000" stroke="none" 
	d="
M552.275879,266.103210 
	C552.275879,262.515228 552.275879,258.927246 552.275879,254.649094 
	C556.413879,255.142670 560.238953,255.833664 564.086792,256.000183 
	C569.229797,256.222748 574.391174,255.990173 579.542725,256.074127 
	C580.451355,256.088959 581.350403,256.696411 582.636292,257.464630 
	C584.025146,259.528809 585.031555,261.158508 585.629822,262.888428 
	C577.392029,262.050415 569.562256,261.112244 562.017334,260.208221 
	C561.107361,262.477844 560.600647,263.741913 559.696777,265.014343 
	C556.958374,265.382904 554.617126,265.743073 552.275879,266.103210 
z"/>
<path fill="#848482" opacity="1.000000" stroke="none" 
	d="
M459.172333,266.033875 
	C459.172333,262.494171 459.172333,258.954498 459.172333,255.090134 
	C462.686401,255.090134 465.907562,255.090134 469.593903,255.511353 
	C471.051331,257.221741 472.043579,258.510925 472.617004,259.873993 
	C468.979462,259.422485 467.499207,260.740387 467.470093,264.005920 
	C464.434509,264.668701 461.803436,265.351288 459.172333,266.033875 
z"/>
<path fill="#9D9D9C" opacity="1.000000" stroke="none" 
	d="
M505.836426,300.036896 
	C507.653107,302.110199 509.469788,304.183533 511.437592,306.429382 
	C500.429749,307.540863 499.695862,307.120514 496.087036,297.193878 
	C497.137451,295.338165 498.095184,294.151581 499.052887,292.964966 
	C499.664917,293.447479 500.276947,293.929962 500.670471,294.921387 
	C499.817535,298.660828 501.554291,298.074066 503.422607,297.275513 
	C503.422607,297.275513 503.596039,297.405975 503.449768,297.818298 
	C504.147827,298.832703 504.992126,299.434814 505.836426,300.036896 
z"/>
<path fill="#A6A6A5" opacity="1.000000" stroke="none" 
	d="
M385.080780,261.040863 
	C383.517700,260.965332 381.954590,260.889801 379.793030,260.785339 
	C380.732086,258.728088 381.363281,257.345245 382.020874,255.602371 
	C384.401764,255.233719 386.756195,255.225143 389.628723,255.444458 
	C390.316681,255.857178 390.524841,255.973618 390.771271,256.021667 
	C391.455383,257.472443 392.139496,258.923218 392.824219,261.061005 
	C391.279846,263.485718 389.734833,265.223419 388.044495,266.660217 
	C387.638123,265.562775 387.377106,264.766205 387.369690,263.766663 
	C387.055420,262.722260 386.487518,261.880920 385.709839,261.010254 
	C385.500092,260.980896 385.080780,261.040863 385.080780,261.040863 
z"/>
<path fill="#9D9D9C" opacity="1.000000" stroke="none" 
	d="
M459.101135,266.487457 
	C461.803436,265.351288 464.434509,264.668701 467.535675,264.437073 
	C467.955780,266.918640 467.905792,268.949219 467.855804,270.979797 
	C466.238922,270.401947 464.622009,269.824127 463.005127,269.246277 
	C462.707977,269.513123 462.410858,269.779968 462.113708,270.046783 
	C463.544128,271.340729 464.974548,272.634674 466.411011,273.931213 
	C464.247742,275.277740 462.078339,276.621643 459.537476,277.971008 
	C459.120667,274.297974 459.075317,270.619507 459.101135,266.487457 
z"/>
<path fill="#A6A6A5" opacity="1.000000" stroke="none" 
	d="
M586.037903,262.788239 
	C585.031555,261.158508 584.025146,259.528809 583.027588,257.539917 
	C589.809021,256.935944 596.201355,257.912445 601.657715,263.061432 
	C599.963440,267.102112 597.207886,263.845123 594.354797,263.638062 
	C592.589905,263.214935 591.282959,263.149719 589.585999,263.020020 
	C588.143250,262.899780 587.090576,262.844025 586.037903,262.788239 
z"/>
<path fill="#7D7C76" opacity="1.000000" stroke="none" 
	d="
M365.122345,300.066589 
	C362.296051,307.142975 362.296051,307.142975 352.160797,306.813904 
	C354.186646,303.191803 356.030151,299.895660 358.324219,296.339142 
	C358.774750,297.260468 358.774750,298.442169 358.774750,300.066589 
	C360.891693,300.066589 363.007019,300.066589 365.122345,300.066589 
z"/>
<path fill="#9D9D9C" opacity="1.000000" stroke="none" 
	d="
M459.107910,291.451080 
	C461.579498,291.004364 463.984253,290.984253 466.770172,290.950043 
	C467.411621,293.002686 467.671875,295.069397 467.468750,297.551758 
	C464.737366,298.631012 462.469360,299.294708 460.201355,299.958374 
	C459.814575,297.264832 459.427826,294.571259 459.107910,291.451080 
z"/>
<path fill="#848482" opacity="1.000000" stroke="none" 
	d="
M574.041931,306.743439 
	C566.713135,306.773468 559.384338,306.803497 552.490723,306.425873 
	C555.280579,305.338104 557.635254,304.657990 560.227966,303.874634 
	C560.648254,303.483826 560.830383,303.196259 561.018311,302.640228 
	C561.034851,302.193115 561.045471,302.014465 561.389648,301.908386 
	C562.162476,302.085052 562.601929,302.189087 563.036011,302.664062 
	C563.055115,305.244934 563.193665,306.091522 566.144104,305.193176 
	C568.409363,304.503387 571.383179,306.140900 574.041931,306.743439 
z"/>
<path fill="#848482" opacity="1.000000" stroke="none" 
	d="
M460.146973,300.380615 
	C462.469360,299.294708 464.737366,298.631012 467.370239,297.956146 
	C467.735107,300.840942 467.735107,303.736908 467.735107,306.834656 
	C464.917480,306.834656 462.356415,306.834656 459.696136,306.834656 
	C459.828430,304.821930 459.960510,302.812408 460.146973,300.380615 
z"/>
<path fill="#B6B9B7" opacity="1.000000" stroke="none" 
	d="
M552.347168,274.898804 
	C552.290222,273.561249 552.233276,272.223724 552.570801,270.472839 
	C553.639038,270.038879 554.312622,270.018219 555.350342,269.981812 
	C557.432251,269.306641 559.150085,268.647247 560.934814,268.401367 
	C559.970459,272.199585 558.939209,275.584320 557.593384,278.878601 
	C555.635010,277.491730 553.991089,276.195251 552.347168,274.898804 
z"/>
<path fill="#8C8B87" opacity="1.000000" stroke="none" 
	d="
M388.189850,266.961151 
	C389.734833,265.223419 391.279846,263.485718 392.896423,261.405884 
	C394.905243,264.152679 396.842499,267.241638 398.394470,270.653870 
	C395.385406,270.993896 392.761719,271.010681 390.004456,270.722809 
	C389.310547,269.265808 388.750214,268.113495 388.189850,266.961151 
z"/>
<path fill="#7D7C76" opacity="1.000000" stroke="none" 
	d="
M561.056152,301.835785 
	C561.045471,302.014465 561.034851,302.193115 560.765503,302.661560 
	C560.338501,302.965668 560.170166,302.980011 559.639160,302.919189 
	C558.022217,299.464813 555.611023,298.260803 552.140503,299.048431 
	C552.101013,297.961395 552.061584,296.874329 552.431763,295.320374 
	C554.607605,294.254120 556.373962,293.654755 558.209534,293.402679 
	C561.390076,295.694550 561.071716,298.817169 561.056152,301.835785 
z"/>
<path fill="#9D9D9C" opacity="1.000000" stroke="none" 
	d="
M473.035797,259.800110 
	C472.043579,258.510925 471.051331,257.221741 470.053162,255.593262 
	C475.383209,255.175293 480.719208,255.096619 486.513916,255.103897 
	C486.972626,255.189865 486.978455,255.569992 486.568176,255.782730 
	C482.693451,255.254608 480.908203,257.084229 479.463196,260.056061 
	C477.035645,259.948517 475.035706,259.874298 473.035797,259.800110 
z"/>
<path fill="#9D9D9C" opacity="1.000000" stroke="none" 
	d="
M574.403381,306.804321 
	C571.383179,306.140900 568.409363,304.503387 566.144104,305.193176 
	C563.193665,306.091522 563.055115,305.244934 563.425171,302.620422 
	C569.198120,302.045380 574.576599,301.884796 579.950562,302.096283 
	C578.948425,303.893036 577.950806,305.317719 576.953247,306.742401 
	C576.223755,306.783325 575.494324,306.824249 574.403381,306.804321 
z"/>
<path fill="#BDBFBE" opacity="1.000000" stroke="none" 
	d="
M606.881836,294.571198 
	C605.409729,293.357910 604.002991,291.770996 602.815430,290.431427 
	C604.082886,288.527100 605.353455,286.617981 607.054993,284.061371 
	C607.569031,284.166870 608.978943,284.456299 610.731201,284.883270 
	C609.698181,288.079773 608.322754,291.138702 606.881836,294.571198 
z"/>
<path fill="#848482" opacity="1.000000" stroke="none" 
	d="
M498.929626,292.663208 
	C498.095184,294.151581 497.137451,295.338165 496.044800,296.829468 
	C493.610229,295.336060 491.310638,293.537964 489.310272,291.373901 
	C490.404785,290.337402 491.200043,289.666870 491.997620,288.998169 
	C492.000000,289.000000 491.995483,288.995117 491.995483,288.995117 
	C493.074707,288.992615 494.153900,288.990143 495.637909,288.988220 
	C496.963928,290.113007 497.885132,291.237213 498.929626,292.663208 
z"/>
<path fill="#9D9D9C" opacity="1.000000" stroke="none" 
	d="
M365.390167,299.938477 
	C363.007019,300.066589 360.891693,300.066589 358.774750,300.066589 
	C358.774750,298.442169 358.774750,297.260468 358.475189,296.013458 
	C358.899841,294.699982 359.624054,293.451813 360.648438,292.091980 
	C362.404388,292.059784 363.860168,292.139191 366.161530,292.264740 
	C364.896637,293.443268 364.187561,294.103882 363.152924,295.067902 
	C364.081757,295.855072 365.004547,296.637115 365.989563,297.763489 
	C365.920532,298.675354 365.789246,299.242859 365.390167,299.938477 
z"/>
<path fill="#9D9D9C" opacity="1.000000" stroke="none" 
	d="
M406.993347,293.992767 
	C410.028229,293.670044 410.377625,295.732208 410.371063,297.940063 
	C410.365845,299.685547 410.131805,301.430389 409.640045,303.603455 
	C408.804352,304.050598 408.328064,304.069824 407.851746,304.089050 
	C406.565430,301.980042 405.279144,299.871033 404.184448,297.141998 
	C405.248505,295.678894 406.120941,294.835846 406.993347,293.992767 
z"/>
<path fill="#A6A6A5" opacity="1.000000" stroke="none" 
	d="
M552.080078,299.477631 
	C555.611023,298.260803 558.022217,299.464813 559.637207,303.165131 
	C559.998047,303.486206 559.989868,303.977905 559.989868,303.977905 
	C557.635254,304.657990 555.280579,305.338104 552.525635,305.991882 
	C552.090088,303.945984 552.054871,301.926422 552.080078,299.477631 
z"/>
<path fill="#C6C8C7" opacity="1.000000" stroke="none" 
	d="
M552.287842,288.890320 
	C552.300171,287.890930 552.312500,286.891571 552.700806,285.508026 
	C554.727234,283.359711 556.377747,281.595551 558.360840,279.988953 
	C559.595276,282.753815 563.519714,285.195129 558.794800,287.968201 
	C556.402527,288.192383 554.345215,288.541351 552.287842,288.890320 
z"/>
<path fill="#848482" opacity="1.000000" stroke="none" 
	d="
M577.375854,306.834290 
	C577.950806,305.317719 578.948425,303.893036 580.150024,301.771423 
	C581.887146,301.008850 583.420227,300.943146 584.953308,300.877472 
	C585.992310,302.107178 587.031311,303.336884 588.168518,304.933289 
	C588.266724,305.300018 588.182373,305.285004 587.800293,305.178497 
	C586.620239,305.425842 585.822327,305.779694 585.024414,306.133545 
	C582.615784,306.397766 580.207092,306.661987 577.375854,306.834290 
z"/>
<path fill="#8C8B87" opacity="1.000000" stroke="none" 
	d="
M558.028320,279.831421 
	C556.377747,281.595551 554.727234,283.359711 552.728760,285.133301 
	C552.277954,282.027130 552.175110,278.911499 552.209717,275.347351 
	C553.991089,276.195251 555.635010,277.491730 557.659424,279.089172 
	C558.040039,279.390167 558.028320,279.831421 558.028320,279.831421 
z"/>
<path fill="#8C8B87" opacity="1.000000" stroke="none" 
	d="
M552.163025,289.231964 
	C554.345215,288.541351 556.402527,288.192383 558.758850,288.349945 
	C558.751953,290.256104 558.446106,291.655762 558.140259,293.055420 
	C556.373962,293.654755 554.607605,294.254120 552.489807,294.915680 
	C552.104919,293.176483 552.071533,291.375031 552.163025,289.231964 
z"/>
<path fill="#7D7C76" opacity="1.000000" stroke="none" 
	d="
M407.920227,304.483429 
	C408.328064,304.069824 408.804352,304.050598 409.637634,304.013306 
	C411.560822,303.140961 413.127014,302.286682 414.890533,301.151306 
	C416.089172,302.652557 417.090515,304.434937 418.091888,306.217285 
	C417.831329,306.717133 417.570801,307.216980 417.310272,307.716797 
	C414.203094,306.770477 411.095917,305.824127 407.920227,304.483429 
z"/>
<path fill="#A6A6A5" opacity="1.000000" stroke="none" 
	d="
M500.925537,264.594055 
	C496.624084,264.816833 493.619324,263.649292 495.792542,258.201813 
	C499.179993,258.891602 501.180786,260.697266 500.925537,264.594055 
z"/>
<path fill="#939391" opacity="1.000000" stroke="none" 
	d="
M484.143677,287.280457 
	C484.141754,285.777435 484.281891,284.559082 484.545868,282.264313 
	C487.445770,284.650269 489.664368,286.475708 491.939240,288.648132 
	C491.995483,288.995117 492.000000,289.000000 491.577637,289.001404 
	C489.754364,289.008148 488.353455,289.013550 486.952545,289.018951 
	C486.063599,288.534332 485.174683,288.049713 484.143677,287.280457 
z"/>
<path fill="#A6A6A5" opacity="1.000000" stroke="none" 
	d="
M390.138000,271.027466 
	C392.761719,271.010681 395.385406,270.993896 398.445709,271.001434 
	C399.922089,272.777863 400.961884,274.529968 402.033386,276.632812 
	C401.302032,276.996368 400.538940,277.009155 399.387512,277.010498 
	C398.999146,276.999084 398.988983,276.989105 398.987549,276.585449 
	C398.170380,270.262787 394.603973,273.589355 391.611145,273.921539 
	C390.937836,272.858551 390.537933,271.942993 390.138000,271.027466 
z"/>
<path fill="#C6C8C7" opacity="1.000000" stroke="none" 
	d="
M560.867859,267.987885 
	C559.150085,268.647247 557.432251,269.306641 555.289490,269.665009 
	C554.015991,268.869537 553.167419,268.375092 552.318848,267.880615 
	C552.284424,267.485840 552.249939,267.091095 552.245667,266.399780 
	C554.617126,265.743073 556.958374,265.382904 559.746216,265.339966 
	C560.417786,266.434082 560.642822,267.210999 560.867859,267.987885 
z"/>
<path fill="#8C8B87" opacity="1.000000" stroke="none" 
	d="
M406.997009,293.996704 
	C406.120941,294.835846 405.248505,295.678894 404.172729,296.784790 
	C403.235992,295.775146 402.502625,294.502655 401.580383,292.977112 
	C401.391510,292.724060 401.679596,292.332123 402.193115,292.213196 
	C404.140198,292.731964 405.573792,293.369690 407.007385,294.007416 
	C407.007385,294.007416 407.000671,294.000671 406.997009,293.996704 
z"/>
<path fill="#070707" opacity="1.000000" stroke="none" 
	d="
M612.088623,134.123672 
	C613.273865,134.946533 614.454956,136.129898 615.629211,137.664276 
	C614.443054,136.838242 613.263733,135.661209 612.088623,134.123672 
z"/>
<path fill="#8C8B87" opacity="1.000000" stroke="none" 
	d="
M487.037476,289.297485 
	C488.353455,289.013550 489.754364,289.008148 491.575256,288.999542 
	C491.200043,289.666870 490.404785,290.337402 489.246399,291.024567 
	C488.296326,290.552826 487.709351,290.064423 487.037476,289.297485 
z"/>
<path fill="#848482" opacity="1.000000" stroke="none" 
	d="
M503.279419,297.041321 
	C501.554291,298.074066 499.817535,298.660828 500.740356,295.209717 
	C501.731232,295.595123 502.433746,296.201111 503.279419,297.041321 
z"/>
<path fill="#8C8B87" opacity="1.000000" stroke="none" 
	d="
M552.206787,268.241974 
	C553.167419,268.375092 554.015991,268.869537 554.925415,269.680786 
	C554.312622,270.018219 553.639038,270.038879 552.627747,270.074646 
	C552.224976,269.594299 552.159851,269.098816 552.206787,268.241974 
z"/>
<path fill="#848482" opacity="1.000000" stroke="none" 
	d="
M505.812927,299.748413 
	C504.992126,299.434814 504.147827,298.832703 503.510803,297.908051 
	C504.408539,298.210297 505.098999,298.835114 505.812927,299.748413 
z"/>
<path fill="#939391" opacity="1.000000" stroke="none" 
	d="
M585.381226,306.098572 
	C585.822327,305.779694 586.620239,305.425842 587.771973,305.146301 
	C587.329956,305.501617 586.533997,305.782593 585.381226,306.098572 
z"/>
<path fill="#8C8B87" opacity="1.000000" stroke="none" 
	d="
M390.789703,255.779907 
	C390.524841,255.973618 390.316681,255.857178 390.065857,255.510284 
	C390.330353,255.103760 390.604767,255.167068 390.789703,255.779907 
z"/>
<path fill="#D9DAD9" opacity="1.000000" stroke="none" 
	d="
M579.990967,489.614349 
	C579.418823,490.095703 578.820740,490.222565 578.078491,490.106812 
	C578.368347,489.215790 578.802307,488.567383 579.577881,487.879272 
	C579.934631,488.313019 579.949829,488.786438 579.990967,489.614349 
z"/>
<path fill="#B6B9B7" opacity="1.000000" stroke="none" 
	d="
M20.998863,286.145752 
	C21.109184,284.235443 21.219444,282.804779 21.391117,280.577332 
	C28.158138,281.100128 34.568123,281.296082 40.881519,282.181091 
	C45.630936,282.846863 49.062469,286.896210 48.929955,290.887756 
	C48.776894,295.498108 45.262432,297.857788 41.604218,298.518646 
	C35.049034,299.702759 28.303480,299.833069 20.998802,300.458496 
	C20.998802,295.164337 20.998802,290.894897 20.998863,286.145752 
z"/>
<path fill="#B6B9B7" opacity="1.000000" stroke="none" 
	d="
M27.068199,275.001221 
	C24.964809,275.001190 23.336369,275.001190 21.354889,275.001190 
	C21.354889,269.342438 21.354889,264.111420 21.354889,258.234406 
	C27.983166,257.575165 34.644348,258.121918 40.862141,260.659241 
	C42.742516,261.426575 44.687145,264.578369 44.705463,266.654694 
	C44.723927,268.747406 42.807995,272.096161 40.993958,272.717377 
	C36.747681,274.171661 32.055054,274.322632 27.068199,275.001221 
z"/>
<path fill="#B6B9B7" opacity="1.000000" stroke="none" 
	d="
M685.872803,273.660278 
	C686.298828,274.505798 686.576721,275.036072 686.988281,275.838074 
	C688.907776,279.774048 690.693420,283.438263 692.755005,287.668610 
	C690.859558,287.812622 689.349060,287.927399 687.450317,288.075806 
	C681.020264,288.061646 674.978271,288.013885 668.468201,287.979797 
	C668.001160,287.565033 668.002258,287.136597 668.019531,286.388123 
	C671.358215,279.954681 674.680786,273.841248 678.051208,267.364136 
	C678.931091,265.632294 679.763062,264.264130 680.419434,263.184753 
	C682.128906,266.458649 683.926758,269.901794 685.872803,273.660278 
z"/>
<path fill="#A6A6A5" opacity="1.000000" stroke="none" 
	d="
M690.472961,269.450073 
	C690.528381,269.417145 690.417542,269.482971 690.472961,269.450073 
z"/>
<path fill="#000000" opacity="1.000000" stroke="none" 
	d="
M390.004456,270.722809 
	C390.537933,271.942993 390.937836,272.858551 391.661743,274.274292 
	C393.295319,276.901276 394.604919,279.028076 395.946594,281.446716 
	C396.273041,282.181458 396.567444,282.624329 396.861847,283.067169 
	C397.201691,284.130280 397.541534,285.193390 398.020996,286.693237 
	C389.450775,286.693237 381.117645,286.693237 372.544983,286.693237 
	C376.646729,278.457886 380.803741,270.111603 385.020752,261.403076 
	C385.080780,261.040863 385.500092,260.980896 385.743835,261.360046 
	C386.363770,262.482697 386.739929,263.226166 387.116089,263.969666 
	C387.377106,264.766205 387.638123,265.562775 388.044495,266.660217 
	C388.750214,268.113495 389.310547,269.265808 390.004456,270.722809 
z"/>
<path fill="#A6A6A5" opacity="1.000000" stroke="none" 
	d="
M397.232697,283.093811 
	C396.567444,282.624329 396.273041,282.181458 395.959473,281.043884 
	C396.956512,279.229156 397.972748,278.109131 398.988983,276.989105 
	C398.988983,276.989105 398.999146,276.999084 399.005859,277.005310 
	C400.596252,279.386200 402.179901,281.760864 403.763550,284.135559 
	C403.490570,284.519165 403.217590,284.902802 402.944611,285.286407 
	C401.164246,284.564423 399.383911,283.842407 397.232697,283.093811 
z"/>
<path fill="#9D9D9C" opacity="1.000000" stroke="none" 
	d="
M407.002136,293.577362 
	C405.573792,293.369690 404.140198,292.731964 402.362366,292.038574 
	C402.028809,290.007690 401.834839,287.350952 404.765472,288.270599 
	C405.907013,288.628815 406.276031,291.448700 407.002136,293.577362 
z"/>
<path fill="#000000" opacity="1.000000" stroke="none" 
	d="
M472.617004,259.873993 
	C475.035706,259.874298 477.035645,259.948517 479.723114,260.372894 
	C482.910553,260.866241 485.410400,261.009399 487.910278,261.152588 
	C491.565643,263.091949 495.276611,265.069580 494.918549,270.067749 
	C494.660889,273.664032 489.274017,279.547943 485.175201,279.697540 
	C479.652161,279.899109 474.090454,279.041260 467.983398,278.597229 
	C467.983398,276.397736 467.983398,274.140717 467.919617,271.431763 
	C467.905792,268.949219 467.955780,266.918640 467.940155,264.456909 
	C467.499207,260.740387 468.979462,259.422485 472.617004,259.873993 
z"/>
<path fill="#7D7C76" opacity="1.000000" stroke="none" 
	d="
M488.079468,260.872589 
	C485.410400,261.009399 482.910553,260.866241 480.150757,260.406250 
	C480.908203,257.084229 482.693451,255.254608 486.576324,255.972641 
	C485.641327,257.975830 492.212250,257.861633 488.079468,260.872589 
z"/>
<path fill="#000000" opacity="1.000000" stroke="none" 
	d="
M560.934814,268.401367 
	C560.642822,267.210999 560.417786,266.434082 560.143311,265.331573 
	C560.600647,263.741913 561.107361,262.477844 562.017334,260.208221 
	C569.562256,261.112244 577.392029,262.050415 585.629822,262.888428 
	C587.090576,262.844025 588.143250,262.899780 589.694336,263.326172 
	C591.450073,264.493011 592.707336,265.289215 593.964600,266.085419 
	C599.596619,269.633179 603.496277,277.516327 602.621643,282.837677 
	C600.647461,294.848236 593.185852,298.616455 585.176880,300.583496 
	C583.420227,300.943146 581.887146,301.008850 580.154602,301.399353 
	C574.576599,301.884796 569.198120,302.045380 563.430420,302.249542 
	C562.601929,302.189087 562.162476,302.085052 561.389648,301.908386 
	C561.071716,298.817169 561.390076,295.694550 558.209473,293.402679 
	C558.446106,291.655762 558.751953,290.256104 559.093750,288.474731 
	C563.519714,285.195129 559.595276,282.753815 558.360840,279.988983 
	C558.028320,279.831421 558.040039,279.390167 557.973999,279.179596 
	C558.939209,275.584320 559.970459,272.199585 560.934814,268.401367 
z"/>
<path fill="#8C8B87" opacity="1.000000" stroke="none" 
	d="
M593.976318,265.731781 
	C592.707336,265.289215 591.450073,264.493011 590.084473,263.390656 
	C591.282959,263.149719 592.589905,263.214935 593.962402,263.621094 
	C594.014709,264.434082 594.001343,264.906128 593.976318,265.731781 
z"/>
<path fill="#8C8B87" opacity="1.000000" stroke="none" 
	d="
M387.369690,263.766663 
	C386.739929,263.226166 386.363770,262.482697 385.953613,261.389404 
	C386.487518,261.880920 387.055420,262.722260 387.369690,263.766663 
z"/>
<path fill="#9D9D9C" opacity="1.000000" stroke="none" 
	d="
M560.227966,303.874634 
	C559.989868,303.977905 559.998047,303.486206 559.999939,303.240265 
	C560.170166,302.980011 560.338501,302.965668 560.759644,302.929993 
	C560.830383,303.196259 560.648254,303.483826 560.227966,303.874634 
z"/>
<path fill="#8C8B87" opacity="1.000000" stroke="none" 
	d="
M398.987549,276.585449 
	C397.972748,278.109131 396.956512,279.229156 395.927399,280.752014 
	C394.604919,279.028076 393.295319,276.901276 391.935120,274.421753 
	C394.603973,273.589355 398.170380,270.262787 398.987549,276.585449 
z"/>
</svg>